<svg version="1.1" xmlns="http://www.w3.org/2000/svg" xmlns:xlink="http://www.w3.org/1999/xlink" width="600" height="600"><g fill="none" fill-rule="nonzero" stroke="#000000" stroke-width="1" stroke-linecap="butt" stroke-linejoin="miter" stroke-miterlimit="10" stroke-dasharray="" stroke-dashoffset="0" font-family="none" font-weight="none" font-size="none" text-anchor="none" style="mix-blend-mode: normal"><ellipse cx="205" cy="100" rx="125" ry="50" fill="#000000"/><ellipse cx="222.82609" cy="108.69565" transform="scale(0.92,0.92)" rx="125" ry="50" fill="#2e1a08"/><ellipse cx="244.04762" cy="119.04762" transform="scale(0.84,0.84)" rx="125" ry="50" fill="#5c3310"/><ellipse cx="269.73684" cy="131.57895" transform="scale(0.76,0.76)" rx="125" ry="50" fill="#8a4d17"/><ellipse cx="301.47059" cy="147.05882" transform="scale(0.68,0.68)" rx="125" ry="50" fill="#b8661f"/><ellipse cx="341.66667" cy="166.66667" transform="scale(0.6,0.6)" rx="125" ry="50" fill="#e58027"/><ellipse cx="394.23077" cy="192.30769" transform="scale(0.52,0.52)" rx="125" ry="50" fill="#ff992f"/><ellipse cx="465.90909" cy="227.27273" transform="scale(0.44,0.44)" rx="125" ry="50" fill="#ffb336"/><ellipse cx="569.44444" cy="277.77778" transform="scale(0.36,0.36)" rx="125" ry="50" fill="#ffcd3e"/><ellipse cx="732.14286" cy="357.14286" transform="scale(0.28,0.28)" rx="125" ry="50" fill="#ffe646"/><ellipse cx="1025" cy="500" transform="scale(0.2,0.2)" rx="125" ry="50" fill="#ffff4e"/><ellipse cx="1708.33333" cy="833.33333" transform="scale(0.12,0.12)" rx="125" ry="50" fill="#ffff56"/><ellipse cx="5125" cy="2500" transform="scale(0.04,0.04)" rx="125" ry="50" fill="#ffff5d"/><ellipse cx="-5125" cy="-2500" transform="rotate(-180) scale(0.04,0.04)" rx="125" ry="50" fill="#ffff65"/><ellipse cx="-1708.33333" cy="-833.33333" transform="rotate(-180) scale(0.12,0.12)" rx="125" ry="50" fill="#ffff6d"/><ellipse cx="-1025" cy="-500" transform="rotate(-180) scale(0.2,0.2)" rx="125" ry="50" fill="#ffff75"/><ellipse cx="283.04667" cy="159.65236" rx="125" ry="50" fill="#000000"/><ellipse cx="307.65943" cy="173.53517" transform="scale(0.92,0.92)" rx="125" ry="50" fill="#2e1a08"/><ellipse cx="336.96032" cy="190.06233" transform="scale(0.84,0.84)" rx="125" ry="50" fill="#5c3310"/><ellipse cx="372.42983" cy="210.06889" transform="scale(0.76,0.76)" rx="125" ry="50" fill="#8a4d17"/><ellipse cx="416.24511" cy="234.78288" transform="scale(0.68,0.68)" rx="125" ry="50" fill="#b8661f"/><ellipse cx="471.74445" cy="266.08726" transform="scale(0.6,0.6)" rx="125" ry="50" fill="#e58027"/><ellipse cx="544.32052" cy="307.02376" transform="scale(0.52,0.52)" rx="125" ry="50" fill="#ff992f"/><ellipse cx="643.28789" cy="362.84626" transform="scale(0.44,0.44)" rx="125" ry="50" fill="#ffb336"/><ellipse cx="786.24075" cy="443.47876" transform="scale(0.36,0.36)" rx="125" ry="50" fill="#ffcd3e"/><ellipse cx="1010.88097" cy="570.18698" transform="scale(0.28,0.28)" rx="125" ry="50" fill="#ffe646"/><ellipse cx="1415.23336" cy="798.26178" transform="scale(0.2,0.2)" rx="125" ry="50" fill="#ffff4e"/><ellipse cx="2358.72226" cy="1330.43629" transform="scale(0.12,0.12)" rx="125" ry="50" fill="#ffff56"/><ellipse cx="7076.16679" cy="3991.30888" transform="scale(0.04,0.04)" rx="125" ry="50" fill="#ffff5d"/><ellipse cx="-7076.16679" cy="-3991.30888" transform="rotate(-180) scale(0.04,0.04)" rx="125" ry="50" fill="#ffff65"/><ellipse cx="-2358.72226" cy="-1330.43629" transform="rotate(-180) scale(0.12,0.12)" rx="125" ry="50" fill="#ffff6d"/><ellipse cx="-1415.23336" cy="-798.26178" transform="rotate(-180) scale(0.2,0.2)" rx="125" ry="50" fill="#ffff75"/><ellipse cx="297.24928" cy="197.12507" rx="125" ry="50" fill="#000000"/><ellipse cx="323.09705" cy="214.26638" transform="scale(0.92,0.92)" rx="125" ry="50" fill="#2e1a08"/><ellipse cx="353.8682" cy="234.6727" transform="scale(0.84,0.84)" rx="125" ry="50" fill="#5c3310"/><ellipse cx="391.11748" cy="259.37509" transform="scale(0.76,0.76)" rx="125" ry="50" fill="#8a4d17"/><ellipse cx="437.1313" cy="289.8898" transform="scale(0.68,0.68)" rx="125" ry="50" fill="#b8661f"/><ellipse cx="495.41547" cy="328.54178" transform="scale(0.6,0.6)" rx="125" ry="50" fill="#e58027"/><ellipse cx="571.63324" cy="379.08667" transform="scale(0.52,0.52)" rx="125" ry="50" fill="#ff992f"/><ellipse cx="675.56655" cy="448.01152" transform="scale(0.44,0.44)" rx="125" ry="50" fill="#ffb336"/><ellipse cx="825.69246" cy="547.56963" transform="scale(0.36,0.36)" rx="125" ry="50" fill="#ffcd3e"/><ellipse cx="1061.60459" cy="704.0181" transform="scale(0.28,0.28)" rx="125" ry="50" fill="#ffe646"/><ellipse cx="1486.24642" cy="985.62533" transform="scale(0.2,0.2)" rx="125" ry="50" fill="#ffff4e"/><ellipse cx="2477.07737" cy="1642.70889" transform="scale(0.12,0.12)" rx="125" ry="50" fill="#ffff56"/><ellipse cx="7431.2321" cy="4928.12667" transform="scale(0.04,0.04)" rx="125" ry="50" fill="#ffff5d"/><ellipse cx="-7431.2321" cy="-4928.12667" transform="rotate(-180) scale(0.04,0.04)" rx="125" ry="50" fill="#ffff65"/><ellipse cx="-2477.07737" cy="-1642.70889" transform="rotate(-180) scale(0.12,0.12)" rx="125" ry="50" fill="#ffff6d"/><ellipse cx="-1486.24642" cy="-985.62533" transform="rotate(-180) scale(0.2,0.2)" rx="125" ry="50" fill="#ffff75"/><ellipse cx="316.99154" cy="287.37927" rx="125" ry="50" fill="#000000"/><ellipse cx="344.55602" cy="312.36877" transform="scale(0.92,0.92)" rx="125" ry="50" fill="#2e1a08"/><ellipse cx="377.37088" cy="342.11818" transform="scale(0.84,0.84)" rx="125" ry="50" fill="#5c3310"/><ellipse cx="417.09413" cy="378.13062" transform="scale(0.76,0.76)" rx="125" ry="50" fill="#8a4d17"/><ellipse cx="466.16403" cy="422.61658" transform="scale(0.68,0.68)" rx="125" ry="50" fill="#b8661f"/><ellipse cx="528.31923" cy="478.96545" transform="scale(0.6,0.6)" rx="125" ry="50" fill="#e58027"/><ellipse cx="609.59911" cy="552.65245" transform="scale(0.52,0.52)" rx="125" ry="50" fill="#ff992f"/><ellipse cx="720.43531" cy="653.13471" transform="scale(0.44,0.44)" rx="125" ry="50" fill="#ffb336"/><ellipse cx="880.53205" cy="798.27576" transform="scale(0.36,0.36)" rx="125" ry="50" fill="#ffcd3e"/><ellipse cx="1132.11263" cy="1026.35455" transform="scale(0.28,0.28)" rx="125" ry="50" fill="#ffe646"/><ellipse cx="1584.95769" cy="1436.89636" transform="scale(0.2,0.2)" rx="125" ry="50" fill="#ffff4e"/><ellipse cx="2641.59615" cy="2394.82727" transform="scale(0.12,0.12)" rx="125" ry="50" fill="#ffff56"/><ellipse cx="7924.78844" cy="7184.48182" transform="scale(0.04,0.04)" rx="125" ry="50" fill="#ffff5d"/><ellipse cx="-7924.78844" cy="-7184.48182" transform="rotate(-180) scale(0.04,0.04)" rx="125" ry="50" fill="#ffff65"/><ellipse cx="-2641.59615" cy="-2394.82727" transform="rotate(-180) scale(0.12,0.12)" rx="125" ry="50" fill="#ffff6d"/><ellipse cx="-1584.95769" cy="-1436.89636" transform="rotate(-180) scale(0.2,0.2)" rx="125" ry="50" fill="#ffff75"/><ellipse cx="349.09829" cy="306.18029" rx="125" ry="50" fill="#000000"/><ellipse cx="379.45466" cy="332.80466" transform="scale(0.92,0.92)" rx="125" ry="50" fill="#2e1a08"/><ellipse cx="415.5932" cy="364.50034" transform="scale(0.84,0.84)" rx="125" ry="50" fill="#5c3310"/><ellipse cx="459.33985" cy="402.8688" transform="scale(0.76,0.76)" rx="125" ry="50" fill="#8a4d17"/><ellipse cx="513.37984" cy="450.26513" transform="scale(0.68,0.68)" rx="125" ry="50" fill="#b8661f"/><ellipse cx="581.83048" cy="510.30048" transform="scale(0.6,0.6)" rx="125" ry="50" fill="#e58027"/><ellipse cx="671.34286" cy="588.80825" transform="scale(0.52,0.52)" rx="125" ry="50" fill="#ff992f"/><ellipse cx="793.4052" cy="695.86429" transform="scale(0.44,0.44)" rx="125" ry="50" fill="#ffb336"/><ellipse cx="969.71747" cy="850.5008" transform="scale(0.36,0.36)" rx="125" ry="50" fill="#ffcd3e"/><ellipse cx="1246.7796" cy="1093.50103" transform="scale(0.28,0.28)" rx="125" ry="50" fill="#ffe646"/><ellipse cx="1745.49145" cy="1530.90144" transform="scale(0.2,0.2)" rx="125" ry="50" fill="#ffff4e"/><ellipse cx="2909.15241" cy="2551.5024" transform="scale(0.12,0.12)" rx="125" ry="50" fill="#ffff56"/><ellipse cx="8727.45723" cy="7654.50721" transform="scale(0.04,0.04)" rx="125" ry="50" fill="#ffff5d"/><ellipse cx="-8727.45723" cy="-7654.50721" transform="rotate(-180) scale(0.04,0.04)" rx="125" ry="50" fill="#ffff65"/><ellipse cx="-2909.15241" cy="-2551.5024" transform="rotate(-180) scale(0.12,0.12)" rx="125" ry="50" fill="#ffff6d"/><ellipse cx="-1745.49145" cy="-1530.90144" transform="rotate(-180) scale(0.2,0.2)" rx="125" ry="50" fill="#ffff75"/><ellipse cx="430.27371" cy="361.65554" rx="125" ry="50" fill="#000000"/><ellipse cx="467.68881" cy="393.10385" transform="scale(0.92,0.92)" rx="125" ry="50" fill="#2e1a08"/><ellipse cx="512.2306" cy="430.54231" transform="scale(0.84,0.84)" rx="125" ry="50" fill="#5c3310"/><ellipse cx="566.14962" cy="475.86255" transform="scale(0.76,0.76)" rx="125" ry="50" fill="#8a4d17"/><ellipse cx="632.75545" cy="531.84638" transform="scale(0.68,0.68)" rx="125" ry="50" fill="#b8661f"/><ellipse cx="717.12285" cy="602.75923" transform="scale(0.6,0.6)" rx="125" ry="50" fill="#e58027"/><ellipse cx="827.44944" cy="695.49142" transform="scale(0.52,0.52)" rx="125" ry="50" fill="#ff992f"/><ellipse cx="977.89479" cy="821.94441" transform="scale(0.44,0.44)" rx="125" ry="50" fill="#ffb336"/><ellipse cx="1195.20474" cy="1004.59872" transform="scale(0.36,0.36)" rx="125" ry="50" fill="#ffcd3e"/><ellipse cx="1536.69181" cy="1291.62693" transform="scale(0.28,0.28)" rx="125" ry="50" fill="#ffe646"/><ellipse cx="2151.36854" cy="1808.2777" transform="scale(0.2,0.2)" rx="125" ry="50" fill="#ffff4e"/><ellipse cx="3585.61423" cy="3013.79617" transform="scale(0.12,0.12)" rx="125" ry="50" fill="#ffff56"/><ellipse cx="10756.8427" cy="9041.38852" transform="scale(0.04,0.04)" rx="125" ry="50" fill="#ffff5d"/><ellipse cx="-10756.8427" cy="-9041.38852" transform="rotate(-180) scale(0.04,0.04)" rx="125" ry="50" fill="#ffff65"/><ellipse cx="-3585.61423" cy="-3013.79617" transform="rotate(-180) scale(0.12,0.12)" rx="125" ry="50" fill="#ffff6d"/><ellipse cx="-2151.36854" cy="-1808.2777" transform="rotate(-180) scale(0.2,0.2)" rx="125" ry="50" fill="#ffff75"/><ellipse cx="485.10482" cy="456.08216" rx="125" ry="50" fill="#000000"/><ellipse cx="527.28784" cy="495.74148" transform="scale(0.92,0.92)" rx="125" ry="50" fill="#2e1a08"/><ellipse cx="577.50573" cy="542.95495" transform="scale(0.84,0.84)" rx="125" ry="50" fill="#5c3310"/><ellipse cx="638.29581" cy="600.10811" transform="scale(0.76,0.76)" rx="125" ry="50" fill="#8a4d17"/><ellipse cx="713.38944" cy="670.70906" transform="scale(0.68,0.68)" rx="125" ry="50" fill="#b8661f"/><ellipse cx="808.50803" cy="760.13693" transform="scale(0.6,0.6)" rx="125" ry="50" fill="#e58027"/><ellipse cx="932.89388" cy="877.08108" transform="scale(0.52,0.52)" rx="125" ry="50" fill="#ff992f"/><ellipse cx="1102.51095" cy="1036.55036" transform="scale(0.44,0.44)" rx="125" ry="50" fill="#ffb336"/><ellipse cx="1347.51338" cy="1266.89489" transform="scale(0.36,0.36)" rx="125" ry="50" fill="#ffcd3e"/><ellipse cx="1732.5172" cy="1628.86486" transform="scale(0.28,0.28)" rx="125" ry="50" fill="#ffe646"/><ellipse cx="2425.52409" cy="2280.4108" transform="scale(0.2,0.2)" rx="125" ry="50" fill="#ffff4e"/><ellipse cx="4042.54014" cy="3800.68467" transform="scale(0.12,0.12)" rx="125" ry="50" fill="#ffff56"/><ellipse cx="12127.62043" cy="11402.054" transform="scale(0.04,0.04)" rx="125" ry="50" fill="#ffff5d"/><ellipse cx="-12127.62043" cy="-11402.054" transform="rotate(-180) scale(0.04,0.04)" rx="125" ry="50" fill="#ffff65"/><ellipse cx="-4042.54014" cy="-3800.68467" transform="rotate(-180) scale(0.12,0.12)" rx="125" ry="50" fill="#ffff6d"/><ellipse cx="-2425.52409" cy="-2280.4108" transform="rotate(-180) scale(0.2,0.2)" rx="125" ry="50" fill="#ffff75"/><ellipse cx="486.88836" cy="474.44279" rx="125" ry="50" fill="#000000"/><ellipse cx="529.22648" cy="515.69868" transform="scale(0.92,0.92)" rx="125" ry="50" fill="#2e1a08"/><ellipse cx="579.629" cy="564.81284" transform="scale(0.84,0.84)" rx="125" ry="50" fill="#5c3310"/><ellipse cx="640.64258" cy="624.26682" transform="scale(0.76,0.76)" rx="125" ry="50" fill="#8a4d17"/><ellipse cx="716.0123" cy="697.70998" transform="scale(0.68,0.68)" rx="125" ry="50" fill="#b8661f"/><ellipse cx="811.4806" cy="790.73798" transform="scale(0.6,0.6)" rx="125" ry="50" fill="#e58027"/><ellipse cx="936.32377" cy="912.38997" transform="scale(0.52,0.52)" rx="125" ry="50" fill="#ff992f"/><ellipse cx="1106.56446" cy="1078.27906" transform="scale(0.44,0.44)" rx="125" ry="50" fill="#ffb336"/><ellipse cx="1352.46767" cy="1317.89663" transform="scale(0.36,0.36)" rx="125" ry="50" fill="#ffcd3e"/><ellipse cx="1738.887" cy="1694.43852" transform="scale(0.28,0.28)" rx="125" ry="50" fill="#ffe646"/><ellipse cx="2434.4418" cy="2372.21393" transform="scale(0.2,0.2)" rx="125" ry="50" fill="#ffff4e"/><ellipse cx="4057.40301" cy="3953.68988" transform="scale(0.12,0.12)" rx="125" ry="50" fill="#ffff56"/><ellipse cx="12172.20902" cy="11861.06963" transform="scale(0.04,0.04)" rx="125" ry="50" fill="#ffff5d"/><ellipse cx="-12172.20902" cy="-11861.06963" transform="rotate(-180) scale(0.04,0.04)" rx="125" ry="50" fill="#ffff65"/><ellipse cx="-4057.40301" cy="-3953.68988" transform="rotate(-180) scale(0.12,0.12)" rx="125" ry="50" fill="#ffff6d"/><ellipse cx="-2434.4418" cy="-2372.21393" transform="rotate(-180) scale(0.2,0.2)" rx="125" ry="50" fill="#ffff75"/><ellipse cx="577.11575" cy="553.39348" rx="125" ry="50" fill="#000000"/><ellipse cx="627.29973" cy="601.51465" transform="scale(0.92,0.92)" rx="125" ry="50" fill="#2e1a08"/><ellipse cx="687.04256" cy="658.80176" transform="scale(0.84,0.84)" rx="125" ry="50" fill="#5c3310"/><ellipse cx="759.36283" cy="728.14931" transform="scale(0.76,0.76)" rx="125" ry="50" fill="#8a4d17"/><ellipse cx="848.69963" cy="813.81394" transform="scale(0.68,0.68)" rx="125" ry="50" fill="#b8661f"/><ellipse cx="961.85958" cy="922.32246" transform="scale(0.6,0.6)" rx="125" ry="50" fill="#e58027"/><ellipse cx="1109.83798" cy="1064.21822" transform="scale(0.52,0.52)" rx="125" ry="50" fill="#ff992f"/><ellipse cx="1311.6267" cy="1257.71245" transform="scale(0.44,0.44)" rx="125" ry="50" fill="#ffb336"/><ellipse cx="1603.0993" cy="1537.2041" transform="scale(0.36,0.36)" rx="125" ry="50" fill="#ffcd3e"/><ellipse cx="2061.12767" cy="1976.40527" transform="scale(0.28,0.28)" rx="125" ry="50" fill="#ffe646"/><ellipse cx="2885.57874" cy="2766.96738" transform="scale(0.2,0.2)" rx="125" ry="50" fill="#ffff4e"/><ellipse cx="4809.2979" cy="4611.6123" transform="scale(0.12,0.12)" rx="125" ry="50" fill="#ffff56"/><ellipse cx="14427.89369" cy="13834.83691" transform="scale(0.04,0.04)" rx="125" ry="50" fill="#ffff5d"/><ellipse cx="-14427.89369" cy="-13834.83691" transform="rotate(-180) scale(0.04,0.04)" rx="125" ry="50" fill="#ffff65"/><ellipse cx="-4809.2979" cy="-4611.6123" transform="rotate(-180) scale(0.12,0.12)" rx="125" ry="50" fill="#ffff6d"/><ellipse cx="-2885.57874" cy="-2766.96738" transform="rotate(-180) scale(0.2,0.2)" rx="125" ry="50" fill="#ffff75"/><ellipse cx="645.00174" cy="627.35546" rx="125" ry="50" fill="#000000"/><ellipse cx="701.08884" cy="681.90811" transform="scale(0.92,0.92)" rx="125" ry="50" fill="#2e1a08"/><ellipse cx="767.85921" cy="746.85174" transform="scale(0.84,0.84)" rx="125" ry="50" fill="#5c3310"/><ellipse cx="848.6865" cy="825.46771" transform="scale(0.76,0.76)" rx="125" ry="50" fill="#8a4d17"/><ellipse cx="948.53197" cy="922.58156" transform="scale(0.68,0.68)" rx="125" ry="50" fill="#b8661f"/><ellipse cx="1075.00289" cy="1045.59243" transform="scale(0.6,0.6)" rx="125" ry="50" fill="#e58027"/><ellipse cx="1240.38796" cy="1206.45281" transform="scale(0.52,0.52)" rx="125" ry="50" fill="#ff992f"/><ellipse cx="1465.91304" cy="1425.80786" transform="scale(0.44,0.44)" rx="125" ry="50" fill="#ffb336"/><ellipse cx="1791.67149" cy="1742.65406" transform="scale(0.36,0.36)" rx="125" ry="50" fill="#ffcd3e"/><ellipse cx="2303.57763" cy="2240.55521" transform="scale(0.28,0.28)" rx="125" ry="50" fill="#ffe646"/><ellipse cx="3225.00868" cy="3136.7773" transform="scale(0.2,0.2)" rx="125" ry="50" fill="#ffff4e"/><ellipse cx="5375.01447" cy="5227.96217" transform="scale(0.12,0.12)" rx="125" ry="50" fill="#ffff56"/><ellipse cx="16125.04342" cy="15683.8865" transform="scale(0.04,0.04)" rx="125" ry="50" fill="#ffff5d"/><ellipse cx="-16125.04342" cy="-15683.8865" transform="rotate(-180) scale(0.04,0.04)" rx="125" ry="50" fill="#ffff65"/><ellipse cx="-5375.01447" cy="-5227.96217" transform="rotate(-180) scale(0.12,0.12)" rx="125" ry="50" fill="#ffff6d"/><ellipse cx="-3225.00868" cy="-3136.7773" transform="rotate(-180) scale(0.2,0.2)" rx="125" ry="50" fill="#ffff75"/><ellipse cx="726.75227" cy="692.86959" rx="125" ry="50" fill="#000000"/><ellipse cx="789.94812" cy="753.11912" transform="scale(0.92,0.92)" rx="125" ry="50" fill="#2e1a08"/><ellipse cx="865.18127" cy="824.84475" transform="scale(0.84,0.84)" rx="125" ry="50" fill="#5c3310"/><ellipse cx="956.25299" cy="911.67052" transform="scale(0.76,0.76)" rx="125" ry="50" fill="#8a4d17"/><ellipse cx="1068.75334" cy="1018.92587" transform="scale(0.68,0.68)" rx="125" ry="50" fill="#b8661f"/><ellipse cx="1211.25378" cy="1154.78265" transform="scale(0.6,0.6)" rx="125" ry="50" fill="#e58027"/><ellipse cx="1397.60052" cy="1332.44152" transform="scale(0.52,0.52)" rx="125" ry="50" fill="#ff992f"/><ellipse cx="1651.7097" cy="1574.70362" transform="scale(0.44,0.44)" rx="125" ry="50" fill="#ffb336"/><ellipse cx="2018.7563" cy="1924.63776" transform="scale(0.36,0.36)" rx="125" ry="50" fill="#ffcd3e"/><ellipse cx="2595.54382" cy="2474.53426" transform="scale(0.28,0.28)" rx="125" ry="50" fill="#ffe646"/><ellipse cx="3633.76135" cy="3464.34796" transform="scale(0.2,0.2)" rx="125" ry="50" fill="#ffff4e"/><ellipse cx="6056.26891" cy="5773.91327" transform="scale(0.12,0.12)" rx="125" ry="50" fill="#ffff56"/><ellipse cx="18168.80674" cy="17321.73982" transform="scale(0.04,0.04)" rx="125" ry="50" fill="#ffff5d"/><ellipse cx="-18168.80674" cy="-17321.73982" transform="rotate(-180) scale(0.04,0.04)" rx="125" ry="50" fill="#ffff65"/><ellipse cx="-6056.26891" cy="-5773.91327" transform="rotate(-180) scale(0.12,0.12)" rx="125" ry="50" fill="#ffff6d"/><ellipse cx="-3633.76135" cy="-3464.34796" transform="rotate(-180) scale(0.2,0.2)" rx="125" ry="50" fill="#ffff75"/><ellipse cx="788.09105" cy="740.02754" rx="125" ry="50" fill="#000000"/><ellipse cx="856.62071" cy="804.37776" transform="scale(0.92,0.92)" rx="125" ry="50" fill="#2e1a08"/><ellipse cx="938.20363" cy="880.98517" transform="scale(0.84,0.84)" rx="125" ry="50" fill="#5c3310"/><ellipse cx="1036.96191" cy="973.72045" transform="scale(0.76,0.76)" rx="125" ry="50" fill="#8a4d17"/><ellipse cx="1158.95743" cy="1088.27579" transform="scale(0.68,0.68)" rx="125" ry="50" fill="#b8661f"/><ellipse cx="1313.48509" cy="1233.37923" transform="scale(0.6,0.6)" rx="125" ry="50" fill="#e58027"/><ellipse cx="1515.55971" cy="1423.12988" transform="scale(0.52,0.52)" rx="125" ry="50" fill="#ff992f"/><ellipse cx="1791.11603" cy="1681.88077" transform="scale(0.44,0.44)" rx="125" ry="50" fill="#ffb336"/><ellipse cx="2189.14181" cy="2055.63205" transform="scale(0.36,0.36)" rx="125" ry="50" fill="#ffcd3e"/><ellipse cx="2814.6109" cy="2642.9555" transform="scale(0.28,0.28)" rx="125" ry="50" fill="#ffe646"/><ellipse cx="3940.45526" cy="3700.1377" transform="scale(0.2,0.2)" rx="125" ry="50" fill="#ffff4e"/><ellipse cx="6567.42543" cy="6166.89616" transform="scale(0.12,0.12)" rx="125" ry="50" fill="#ffff56"/><ellipse cx="19702.27628" cy="18500.68848" transform="scale(0.04,0.04)" rx="125" ry="50" fill="#ffff5d"/><ellipse cx="-19702.27628" cy="-18500.68848" transform="rotate(-180) scale(0.04,0.04)" rx="125" ry="50" fill="#ffff65"/><ellipse cx="-6567.42543" cy="-6166.89616" transform="rotate(-180) scale(0.12,0.12)" rx="125" ry="50" fill="#ffff6d"/><ellipse cx="-3940.45526" cy="-3700.1377" transform="rotate(-180) scale(0.2,0.2)" rx="125" ry="50" fill="#ffff75"/><ellipse cx="795.9995" cy="764.75777" rx="125" ry="50" fill="#000000"/><ellipse cx="865.21685" cy="831.25845" transform="scale(0.92,0.92)" rx="125" ry="50" fill="#2e1a08"/><ellipse cx="947.61845" cy="910.42592" transform="scale(0.84,0.84)" rx="125" ry="50" fill="#5c3310"/><ellipse cx="1047.36777" cy="1006.26023" transform="scale(0.76,0.76)" rx="125" ry="50" fill="#8a4d17"/><ellipse cx="1170.5875" cy="1124.64378" transform="scale(0.68,0.68)" rx="125" ry="50" fill="#b8661f"/><ellipse cx="1326.66584" cy="1274.59629" transform="scale(0.6,0.6)" rx="125" ry="50" fill="#e58027"/><ellipse cx="1530.76827" cy="1470.68802" transform="scale(0.52,0.52)" rx="125" ry="50" fill="#ff992f"/><ellipse cx="1809.08978" cy="1738.08585" transform="scale(0.44,0.44)" rx="125" ry="50" fill="#ffb336"/><ellipse cx="2211.10973" cy="2124.32715" transform="scale(0.36,0.36)" rx="125" ry="50" fill="#ffcd3e"/><ellipse cx="2842.85536" cy="2731.27776" transform="scale(0.28,0.28)" rx="125" ry="50" fill="#ffe646"/><ellipse cx="3979.99751" cy="3823.78886" transform="scale(0.2,0.2)" rx="125" ry="50" fill="#ffff4e"/><ellipse cx="6633.32918" cy="6372.98144" transform="scale(0.12,0.12)" rx="125" ry="50" fill="#ffff56"/><ellipse cx="19899.98755" cy="19118.94431" transform="scale(0.04,0.04)" rx="125" ry="50" fill="#ffff5d"/><ellipse cx="-19899.98755" cy="-19118.94431" transform="rotate(-180) scale(0.04,0.04)" rx="125" ry="50" fill="#ffff65"/><ellipse cx="-6633.32918" cy="-6372.98144" transform="rotate(-180) scale(0.12,0.12)" rx="125" ry="50" fill="#ffff6d"/><ellipse cx="-3979.99751" cy="-3823.78886" transform="rotate(-180) scale(0.2,0.2)" rx="125" ry="50" fill="#ffff75"/><ellipse cx="855.1709" cy="801.15003" rx="125" ry="50" fill="#000000"/><ellipse cx="929.53359" cy="870.81525" transform="scale(0.92,0.92)" rx="125" ry="50" fill="#2e1a08"/><ellipse cx="1018.0606" cy="953.75004" transform="scale(0.84,0.84)" rx="125" ry="50" fill="#5c3310"/><ellipse cx="1125.22487" cy="1054.14478" transform="scale(0.76,0.76)" rx="125" ry="50" fill="#8a4d17"/><ellipse cx="1257.60427" cy="1178.16181" transform="scale(0.68,0.68)" rx="125" ry="50" fill="#b8661f"/><ellipse cx="1425.28484" cy="1335.25005" transform="scale(0.6,0.6)" rx="125" ry="50" fill="#e58027"/><ellipse cx="1644.55943" cy="1540.67314" transform="scale(0.52,0.52)" rx="125" ry="50" fill="#ff992f"/><ellipse cx="1943.57023" cy="1820.79553" transform="scale(0.44,0.44)" rx="125" ry="50" fill="#ffb336"/><ellipse cx="2375.47473" cy="2225.41675" transform="scale(0.36,0.36)" rx="125" ry="50" fill="#ffcd3e"/><ellipse cx="3054.18179" cy="2861.25011" transform="scale(0.28,0.28)" rx="125" ry="50" fill="#ffe646"/><ellipse cx="4275.85451" cy="4005.75016" transform="scale(0.2,0.2)" rx="125" ry="50" fill="#ffff4e"/><ellipse cx="7126.42418" cy="6676.25026" transform="scale(0.12,0.12)" rx="125" ry="50" fill="#ffff56"/><ellipse cx="21379.27253" cy="20028.75079" transform="scale(0.04,0.04)" rx="125" ry="50" fill="#ffff5d"/><ellipse cx="-21379.27253" cy="-20028.75079" transform="rotate(-180) scale(0.04,0.04)" rx="125" ry="50" fill="#ffff65"/><ellipse cx="-7126.42418" cy="-6676.25026" transform="rotate(-180) scale(0.12,0.12)" rx="125" ry="50" fill="#ffff6d"/><ellipse cx="-4275.85451" cy="-4005.75016" transform="rotate(-180) scale(0.2,0.2)" rx="125" ry="50" fill="#ffff75"/><ellipse cx="855.81978" cy="816.17348" rx="125" ry="50" fill="#000000"/><ellipse cx="930.23889" cy="887.14509" transform="scale(0.92,0.92)" rx="125" ry="50" fill="#2e1a08"/><ellipse cx="1018.83307" cy="971.6351" transform="scale(0.84,0.84)" rx="125" ry="50" fill="#5c3310"/><ellipse cx="1126.07866" cy="1073.91248" transform="scale(0.76,0.76)" rx="125" ry="50" fill="#8a4d17"/><ellipse cx="1258.5585" cy="1200.25512" transform="scale(0.68,0.68)" rx="125" ry="50" fill="#b8661f"/><ellipse cx="1426.3663" cy="1360.28914" transform="scale(0.6,0.6)" rx="125" ry="50" fill="#e58027"/><ellipse cx="1645.80727" cy="1569.56439" transform="scale(0.52,0.52)" rx="125" ry="50" fill="#ff992f"/><ellipse cx="1945.04495" cy="1854.93973" transform="scale(0.44,0.44)" rx="125" ry="50" fill="#ffb336"/><ellipse cx="2377.27716" cy="2267.14856" transform="scale(0.36,0.36)" rx="125" ry="50" fill="#ffcd3e"/><ellipse cx="3056.49921" cy="2914.9053" transform="scale(0.28,0.28)" rx="125" ry="50" fill="#ffe646"/><ellipse cx="4279.09889" cy="4080.86742" transform="scale(0.2,0.2)" rx="125" ry="50" fill="#ffff4e"/><ellipse cx="7131.83149" cy="6801.44569" transform="scale(0.12,0.12)" rx="125" ry="50" fill="#ffff56"/><ellipse cx="21395.49447" cy="20404.33708" transform="scale(0.04,0.04)" rx="125" ry="50" fill="#ffff5d"/><ellipse cx="-21395.49447" cy="-20404.33708" transform="rotate(-180) scale(0.04,0.04)" rx="125" ry="50" fill="#ffff65"/><ellipse cx="-7131.83149" cy="-6801.44569" transform="rotate(-180) scale(0.12,0.12)" rx="125" ry="50" fill="#ffff6d"/><ellipse cx="-4279.09889" cy="-4080.86742" transform="rotate(-180) scale(0.2,0.2)" rx="125" ry="50" fill="#ffff75"/><ellipse cx="948.41764" cy="850.54886" rx="125" ry="50" fill="#000000"/><ellipse cx="1030.88874" cy="924.50963" transform="scale(0.92,0.92)" rx="125" ry="50" fill="#2e1a08"/><ellipse cx="1129.06862" cy="1012.55817" transform="scale(0.84,0.84)" rx="125" ry="50" fill="#5c3310"/><ellipse cx="1247.91795" cy="1119.14324" transform="scale(0.76,0.76)" rx="125" ry="50" fill="#8a4d17"/><ellipse cx="1394.73183" cy="1250.80715" transform="scale(0.68,0.68)" rx="125" ry="50" fill="#b8661f"/><ellipse cx="1580.69607" cy="1417.58143" transform="scale(0.6,0.6)" rx="125" ry="50" fill="#e58027"/><ellipse cx="1823.88008" cy="1635.67088" transform="scale(0.52,0.52)" rx="125" ry="50" fill="#ff992f"/><ellipse cx="2155.49464" cy="1933.06559" transform="scale(0.44,0.44)" rx="125" ry="50" fill="#ffb336"/><ellipse cx="2634.49345" cy="2362.63572" transform="scale(0.36,0.36)" rx="125" ry="50" fill="#ffcd3e"/><ellipse cx="3387.20587" cy="3037.6745" transform="scale(0.28,0.28)" rx="125" ry="50" fill="#ffe646"/><ellipse cx="4742.08821" cy="4252.7443" transform="scale(0.2,0.2)" rx="125" ry="50" fill="#ffff4e"/><ellipse cx="7903.48035" cy="7087.90716" transform="scale(0.12,0.12)" rx="125" ry="50" fill="#ffff56"/><ellipse cx="23710.44106" cy="21263.72149" transform="scale(0.04,0.04)" rx="125" ry="50" fill="#ffff5d"/><ellipse cx="-23710.44106" cy="-21263.72149" transform="rotate(-180) scale(0.04,0.04)" rx="125" ry="50" fill="#ffff65"/><ellipse cx="-7903.48035" cy="-7087.90716" transform="rotate(-180) scale(0.12,0.12)" rx="125" ry="50" fill="#ffff6d"/><ellipse cx="-4742.08821" cy="-4252.7443" transform="rotate(-180) scale(0.2,0.2)" rx="125" ry="50" fill="#ffff75"/><ellipse cx="984.57518" cy="866.74174" rx="125" ry="50" fill="#000000"/><ellipse cx="1070.19041" cy="942.11059" transform="scale(0.92,0.92)" rx="125" ry="50" fill="#2e1a08"/><ellipse cx="1172.11331" cy="1031.8354" transform="scale(0.84,0.84)" rx="125" ry="50" fill="#5c3310"/><ellipse cx="1295.49366" cy="1140.44966" transform="scale(0.76,0.76)" rx="125" ry="50" fill="#8a4d17"/><ellipse cx="1447.90467" cy="1274.6202" transform="scale(0.68,0.68)" rx="125" ry="50" fill="#b8661f"/><ellipse cx="1640.95863" cy="1444.56957" transform="scale(0.6,0.6)" rx="125" ry="50" fill="#e58027"/><ellipse cx="1893.4138" cy="1666.81104" transform="scale(0.52,0.52)" rx="125" ry="50" fill="#ff992f"/><ellipse cx="2237.67086" cy="1969.86759" transform="scale(0.44,0.44)" rx="125" ry="50" fill="#ffb336"/><ellipse cx="2734.93105" cy="2407.61594" transform="scale(0.36,0.36)" rx="125" ry="50" fill="#ffcd3e"/><ellipse cx="3516.33992" cy="3095.50621" transform="scale(0.28,0.28)" rx="125" ry="50" fill="#ffe646"/><ellipse cx="4922.87589" cy="4333.7087" transform="scale(0.2,0.2)" rx="125" ry="50" fill="#ffff4e"/><ellipse cx="8204.79315" cy="7222.84783" transform="scale(0.12,0.12)" rx="125" ry="50" fill="#ffff56"/><ellipse cx="24614.37945" cy="21668.54348" transform="scale(0.04,0.04)" rx="125" ry="50" fill="#ffff5d"/><ellipse cx="-24614.37945" cy="-21668.54348" transform="rotate(-180) scale(0.04,0.04)" rx="125" ry="50" fill="#ffff65"/><ellipse cx="-8204.79315" cy="-7222.84783" transform="rotate(-180) scale(0.12,0.12)" rx="125" ry="50" fill="#ffff6d"/><ellipse cx="-4922.87589" cy="-4333.7087" transform="rotate(-180) scale(0.2,0.2)" rx="125" ry="50" fill="#ffff75"/><ellipse cx="1084.25841" cy="936.72102" rx="125" ry="50" fill="#000000"/><ellipse cx="1178.54175" cy="1018.17502" transform="scale(0.92,0.92)" rx="125" ry="50" fill="#2e1a08"/><ellipse cx="1290.78382" cy="1115.14407" transform="scale(0.84,0.84)" rx="125" ry="50" fill="#5c3310"/><ellipse cx="1426.6558" cy="1232.52766" transform="scale(0.76,0.76)" rx="125" ry="50" fill="#8a4d17"/><ellipse cx="1594.49766" cy="1377.53091" transform="scale(0.68,0.68)" rx="125" ry="50" fill="#b8661f"/><ellipse cx="1807.09735" cy="1561.2017" transform="scale(0.6,0.6)" rx="125" ry="50" fill="#e58027"/><ellipse cx="2085.11233" cy="1801.38657" transform="scale(0.52,0.52)" rx="125" ry="50" fill="#ff992f"/><ellipse cx="2464.22366" cy="2128.9114" transform="scale(0.44,0.44)" rx="125" ry="50" fill="#ffb336"/><ellipse cx="3011.82892" cy="2602.00283" transform="scale(0.36,0.36)" rx="125" ry="50" fill="#ffcd3e"/><ellipse cx="3872.35146" cy="3345.43221" transform="scale(0.28,0.28)" rx="125" ry="50" fill="#ffe646"/><ellipse cx="5421.29205" cy="4683.60509" transform="scale(0.2,0.2)" rx="125" ry="50" fill="#ffff4e"/><ellipse cx="9035.48675" cy="7806.00848" transform="scale(0.12,0.12)" rx="125" ry="50" fill="#ffff56"/><ellipse cx="27106.46024" cy="23418.02545" transform="scale(0.04,0.04)" rx="125" ry="50" fill="#ffff5d"/><ellipse cx="-27106.46024" cy="-23418.02545" transform="rotate(-180) scale(0.04,0.04)" rx="125" ry="50" fill="#ffff65"/><ellipse cx="-9035.48675" cy="-7806.00848" transform="rotate(-180) scale(0.12,0.12)" rx="125" ry="50" fill="#ffff6d"/><ellipse cx="-5421.29205" cy="-4683.60509" transform="rotate(-180) scale(0.2,0.2)" rx="125" ry="50" fill="#ffff75"/><ellipse cx="1088.7627" cy="980.00504" rx="125" ry="50" fill="#000000"/><ellipse cx="1183.43772" cy="1065.22287" transform="scale(0.92,0.92)" rx="125" ry="50" fill="#2e1a08"/><ellipse cx="1296.14607" cy="1166.67267" transform="scale(0.84,0.84)" rx="125" ry="50" fill="#5c3310"/><ellipse cx="1432.5825" cy="1289.48031" transform="scale(0.76,0.76)" rx="125" ry="50" fill="#8a4d17"/><ellipse cx="1601.12162" cy="1441.18388" transform="scale(0.68,0.68)" rx="125" ry="50" fill="#b8661f"/><ellipse cx="1814.6045" cy="1633.34173" transform="scale(0.6,0.6)" rx="125" ry="50" fill="#e58027"/><ellipse cx="2093.77442" cy="1884.62508" transform="scale(0.52,0.52)" rx="125" ry="50" fill="#ff992f"/><ellipse cx="2474.46068" cy="2227.28418" transform="scale(0.44,0.44)" rx="125" ry="50" fill="#ffb336"/><ellipse cx="3024.34083" cy="2722.23622" transform="scale(0.36,0.36)" rx="125" ry="50" fill="#ffcd3e"/><ellipse cx="3888.43821" cy="3500.018" transform="scale(0.28,0.28)" rx="125" ry="50" fill="#ffe646"/><ellipse cx="5443.8135" cy="4900.0252" transform="scale(0.2,0.2)" rx="125" ry="50" fill="#ffff4e"/><ellipse cx="9073.0225" cy="8166.70866" transform="scale(0.12,0.12)" rx="125" ry="50" fill="#ffff56"/><ellipse cx="27219.0675" cy="24500.12598" transform="scale(0.04,0.04)" rx="125" ry="50" fill="#ffff5d"/><ellipse cx="-27219.0675" cy="-24500.12598" transform="rotate(-180) scale(0.04,0.04)" rx="125" ry="50" fill="#ffff65"/><ellipse cx="-9073.0225" cy="-8166.70866" transform="rotate(-180) scale(0.12,0.12)" rx="125" ry="50" fill="#ffff6d"/><ellipse cx="-5443.8135" cy="-4900.0252" transform="rotate(-180) scale(0.2,0.2)" rx="125" ry="50" fill="#ffff75"/><ellipse cx="1142.83788" cy="1005.54869" rx="125" ry="50" fill="#000000"/><ellipse cx="1242.21509" cy="1092.98771" transform="scale(0.92,0.92)" rx="125" ry="50" fill="#2e1a08"/><ellipse cx="1360.52129" cy="1197.08177" transform="scale(0.84,0.84)" rx="125" ry="50" fill="#5c3310"/><ellipse cx="1503.73405" cy="1323.09038" transform="scale(0.76,0.76)" rx="125" ry="50" fill="#8a4d17"/><ellipse cx="1680.64394" cy="1478.74807" transform="scale(0.68,0.68)" rx="125" ry="50" fill="#b8661f"/><ellipse cx="1904.7298" cy="1675.91448" transform="scale(0.6,0.6)" rx="125" ry="50" fill="#e58027"/><ellipse cx="2197.76516" cy="1933.74748" transform="scale(0.52,0.52)" rx="125" ry="50" fill="#ff992f"/><ellipse cx="2597.35882" cy="2285.33793" transform="scale(0.44,0.44)" rx="125" ry="50" fill="#ffb336"/><ellipse cx="3174.54967" cy="2793.1908" transform="scale(0.36,0.36)" rx="125" ry="50" fill="#ffcd3e"/><ellipse cx="4081.56386" cy="3591.24532" transform="scale(0.28,0.28)" rx="125" ry="50" fill="#ffe646"/><ellipse cx="5714.1894" cy="5027.74344" transform="scale(0.2,0.2)" rx="125" ry="50" fill="#ffff4e"/><ellipse cx="9523.64901" cy="8379.57241" transform="scale(0.12,0.12)" rx="125" ry="50" fill="#ffff56"/><ellipse cx="28570.94702" cy="25138.71722" transform="scale(0.04,0.04)" rx="125" ry="50" fill="#ffff5d"/><ellipse cx="-28570.94702" cy="-25138.71722" transform="rotate(-180) scale(0.04,0.04)" rx="125" ry="50" fill="#ffff65"/><ellipse cx="-9523.64901" cy="-8379.57241" transform="rotate(-180) scale(0.12,0.12)" rx="125" ry="50" fill="#ffff6d"/><ellipse cx="-5714.1894" cy="-5027.74344" transform="rotate(-180) scale(0.2,0.2)" rx="125" ry="50" fill="#ffff75"/></g></svg>