<svg version="1.1" xmlns="http://www.w3.org/2000/svg" xmlns:xlink="http://www.w3.org/1999/xlink" width="600" height="600"><g fill="none" fill-rule="nonzero" stroke="#000000" stroke-width="1" stroke-linecap="butt" stroke-linejoin="miter" stroke-miterlimit="10" stroke-dasharray="" stroke-dashoffset="0" font-family="none" font-weight="none" font-size="none" text-anchor="none" style="mix-blend-mode: normal"><ellipse cx="205" cy="100" rx="125" ry="50" fill="#000000"/><ellipse cx="222.82609" cy="108.69565" transform="scale(0.92,0.92)" rx="125" ry="50" fill="#2e1a08"/><ellipse cx="244.04762" cy="119.04762" transform="scale(0.84,0.84)" rx="125" ry="50" fill="#5c3310"/><ellipse cx="269.73684" cy="131.57895" transform="scale(0.76,0.76)" rx="125" ry="50" fill="#8a4d17"/><ellipse cx="301.47059" cy="147.05882" transform="scale(0.68,0.68)" rx="125" ry="50" fill="#b8661f"/><ellipse cx="341.66667" cy="166.66667" transform="scale(0.6,0.6)" rx="125" ry="50" fill="#e58027"/><ellipse cx="394.23077" cy="192.30769" transform="scale(0.52,0.52)" rx="125" ry="50" fill="#ff992f"/><ellipse cx="465.90909" cy="227.27273" transform="scale(0.44,0.44)" rx="125" ry="50" fill="#ffb336"/><ellipse cx="569.44444" cy="277.77778" transform="scale(0.36,0.36)" rx="125" ry="50" fill="#ffcd3e"/><ellipse cx="732.14286" cy="357.14286" transform="scale(0.28,0.28)" rx="125" ry="50" fill="#ffe646"/><ellipse cx="1025" cy="500" transform="scale(0.2,0.2)" rx="125" ry="50" fill="#ffff4e"/><ellipse cx="1708.33333" cy="833.33333" transform="scale(0.12,0.12)" rx="125" ry="50" fill="#ffff56"/><ellipse cx="5125" cy="2500" transform="scale(0.04,0.04)" rx="125" ry="50" fill="#ffff5d"/><ellipse cx="-5125" cy="-2500" transform="rotate(-180) scale(0.04,0.04)" rx="125" ry="50" fill="#ffff65"/><ellipse cx="-1708.33333" cy="-833.33333" transform="rotate(-180) scale(0.12,0.12)" rx="125" ry="50" fill="#ffff6d"/><ellipse cx="-1025" cy="-500" transform="rotate(-180) scale(0.2,0.2)" rx="125" ry="50" fill="#ffff75"/><ellipse cx="207.27631" cy="193.41963" rx="125" ry="50" fill="#000000"/><ellipse cx="225.30034" cy="210.23873" transform="scale(0.92,0.92)" rx="125" ry="50" fill="#2e1a08"/><ellipse cx="246.75752" cy="230.26147" transform="scale(0.84,0.84)" rx="125" ry="50" fill="#5c3310"/><ellipse cx="272.73199" cy="254.49952" transform="scale(0.76,0.76)" rx="125" ry="50" fill="#8a4d17"/><ellipse cx="304.81811" cy="284.44064" transform="scale(0.68,0.68)" rx="125" ry="50" fill="#b8661f"/><ellipse cx="345.46052" cy="322.36605" transform="scale(0.6,0.6)" rx="125" ry="50" fill="#e58027"/><ellipse cx="398.60829" cy="371.96083" transform="scale(0.52,0.52)" rx="125" ry="50" fill="#ff992f"/><ellipse cx="471.08253" cy="439.59007" transform="scale(0.44,0.44)" rx="125" ry="50" fill="#ffb336"/><ellipse cx="575.76754" cy="537.27676" transform="scale(0.36,0.36)" rx="125" ry="50" fill="#ffcd3e"/><ellipse cx="740.27255" cy="690.7844" transform="scale(0.28,0.28)" rx="125" ry="50" fill="#ffe646"/><ellipse cx="1036.38156" cy="967.09816" transform="scale(0.2,0.2)" rx="125" ry="50" fill="#ffff4e"/><ellipse cx="1727.30261" cy="1611.83027" transform="scale(0.12,0.12)" rx="125" ry="50" fill="#ffff56"/><ellipse cx="5181.90782" cy="4835.49081" transform="scale(0.04,0.04)" rx="125" ry="50" fill="#ffff5d"/><ellipse cx="-5181.90782" cy="-4835.49081" transform="rotate(-180) scale(0.04,0.04)" rx="125" ry="50" fill="#ffff65"/><ellipse cx="-1727.30261" cy="-1611.83027" transform="rotate(-180) scale(0.12,0.12)" rx="125" ry="50" fill="#ffff6d"/><ellipse cx="-1036.38156" cy="-967.09816" transform="rotate(-180) scale(0.2,0.2)" rx="125" ry="50" fill="#ffff75"/><ellipse cx="258.50745" cy="258.26615" rx="125" ry="50" fill="#000000"/><ellipse cx="280.98636" cy="280.72407" transform="scale(0.92,0.92)" rx="125" ry="50" fill="#2e1a08"/><ellipse cx="307.74697" cy="307.4597" transform="scale(0.84,0.84)" rx="125" ry="50" fill="#5c3310"/><ellipse cx="340.14138" cy="339.82388" transform="scale(0.76,0.76)" rx="125" ry="50" fill="#8a4d17"/><ellipse cx="380.15802" cy="379.80316" transform="scale(0.68,0.68)" rx="125" ry="50" fill="#b8661f"/><ellipse cx="430.84575" cy="430.44358" transform="scale(0.6,0.6)" rx="125" ry="50" fill="#e58027"/><ellipse cx="497.12971" cy="496.66566" transform="scale(0.52,0.52)" rx="125" ry="50" fill="#ff992f"/><ellipse cx="587.51694" cy="586.96851" transform="scale(0.44,0.44)" rx="125" ry="50" fill="#ffb336"/><ellipse cx="718.07625" cy="717.40596" transform="scale(0.36,0.36)" rx="125" ry="50" fill="#ffcd3e"/><ellipse cx="923.2409" cy="922.37909" transform="scale(0.28,0.28)" rx="125" ry="50" fill="#ffe646"/><ellipse cx="1292.53726" cy="1291.33073" transform="scale(0.2,0.2)" rx="125" ry="50" fill="#ffff4e"/><ellipse cx="2154.22876" cy="2152.21788" transform="scale(0.12,0.12)" rx="125" ry="50" fill="#ffff56"/><ellipse cx="6462.68629" cy="6456.65364" transform="scale(0.04,0.04)" rx="125" ry="50" fill="#ffff5d"/><ellipse cx="-6462.68629" cy="-6456.65364" transform="rotate(-180) scale(0.04,0.04)" rx="125" ry="50" fill="#ffff65"/><ellipse cx="-2154.22876" cy="-2152.21788" transform="rotate(-180) scale(0.12,0.12)" rx="125" ry="50" fill="#ffff6d"/><ellipse cx="-1292.53726" cy="-1291.33073" transform="rotate(-180) scale(0.2,0.2)" rx="125" ry="50" fill="#ffff75"/><ellipse cx="268.88922" cy="309.69146" rx="125" ry="50" fill="#000000"/><ellipse cx="292.2709" cy="336.62115" transform="scale(0.92,0.92)" rx="125" ry="50" fill="#2e1a08"/><ellipse cx="320.10622" cy="368.68031" transform="scale(0.84,0.84)" rx="125" ry="50" fill="#5c3310"/><ellipse cx="353.80161" cy="407.48877" transform="scale(0.76,0.76)" rx="125" ry="50" fill="#8a4d17"/><ellipse cx="395.42533" cy="455.42862" transform="scale(0.68,0.68)" rx="125" ry="50" fill="#b8661f"/><ellipse cx="448.14871" cy="516.15244" transform="scale(0.6,0.6)" rx="125" ry="50" fill="#e58027"/><ellipse cx="517.09466" cy="595.5605" transform="scale(0.52,0.52)" rx="125" ry="50" fill="#ff992f"/><ellipse cx="611.11187" cy="703.84423" transform="scale(0.44,0.44)" rx="125" ry="50" fill="#ffb336"/><ellipse cx="746.91451" cy="860.25406" transform="scale(0.36,0.36)" rx="125" ry="50" fill="#ffcd3e"/><ellipse cx="960.31866" cy="1106.04094" transform="scale(0.28,0.28)" rx="125" ry="50" fill="#ffe646"/><ellipse cx="1344.44612" cy="1548.45731" transform="scale(0.2,0.2)" rx="125" ry="50" fill="#ffff4e"/><ellipse cx="2240.74354" cy="2580.76219" transform="scale(0.12,0.12)" rx="125" ry="50" fill="#ffff56"/><ellipse cx="6722.23062" cy="7742.28656" transform="scale(0.04,0.04)" rx="125" ry="50" fill="#ffff5d"/><ellipse cx="-6722.23062" cy="-7742.28656" transform="rotate(-180) scale(0.04,0.04)" rx="125" ry="50" fill="#ffff65"/><ellipse cx="-2240.74354" cy="-2580.76219" transform="rotate(-180) scale(0.12,0.12)" rx="125" ry="50" fill="#ffff6d"/><ellipse cx="-1344.44612" cy="-1548.45731" transform="rotate(-180) scale(0.2,0.2)" rx="125" ry="50" fill="#ffff75"/><ellipse cx="273.56942" cy="367.53864" rx="125" ry="50" fill="#000000"/><ellipse cx="297.35807" cy="399.49852" transform="scale(0.92,0.92)" rx="125" ry="50" fill="#2e1a08"/><ellipse cx="325.67789" cy="437.546" transform="scale(0.84,0.84)" rx="125" ry="50" fill="#5c3310"/><ellipse cx="359.95977" cy="483.60348" transform="scale(0.76,0.76)" rx="125" ry="50" fill="#8a4d17"/><ellipse cx="402.30798" cy="540.498" transform="scale(0.68,0.68)" rx="125" ry="50" fill="#b8661f"/><ellipse cx="455.94904" cy="612.5644" transform="scale(0.6,0.6)" rx="125" ry="50" fill="#e58027"/><ellipse cx="526.09505" cy="706.80508" transform="scale(0.52,0.52)" rx="125" ry="50" fill="#ff992f"/><ellipse cx="621.74869" cy="835.3151" transform="scale(0.44,0.44)" rx="125" ry="50" fill="#ffb336"/><ellipse cx="759.91507" cy="1020.94067" transform="scale(0.36,0.36)" rx="125" ry="50" fill="#ffcd3e"/><ellipse cx="977.03366" cy="1312.63801" transform="scale(0.28,0.28)" rx="125" ry="50" fill="#ffe646"/><ellipse cx="1367.84712" cy="1837.69321" transform="scale(0.2,0.2)" rx="125" ry="50" fill="#ffff4e"/><ellipse cx="2279.7452" cy="3062.82202" transform="scale(0.12,0.12)" rx="125" ry="50" fill="#ffff56"/><ellipse cx="6839.2356" cy="9188.46605" transform="scale(0.04,0.04)" rx="125" ry="50" fill="#ffff5d"/><ellipse cx="-6839.2356" cy="-9188.46605" transform="rotate(-180) scale(0.04,0.04)" rx="125" ry="50" fill="#ffff65"/><ellipse cx="-2279.7452" cy="-3062.82202" transform="rotate(-180) scale(0.12,0.12)" rx="125" ry="50" fill="#ffff6d"/><ellipse cx="-1367.84712" cy="-1837.69321" transform="rotate(-180) scale(0.2,0.2)" rx="125" ry="50" fill="#ffff75"/></g></svg>