<svg version="1.1" xmlns="http://www.w3.org/2000/svg" xmlns:xlink="http://www.w3.org/1999/xlink" width="600" height="600"><g fill="none" fill-rule="nonzero" stroke="none" stroke-width="1" stroke-linecap="butt" stroke-linejoin="miter" stroke-miterlimit="10" stroke-dasharray="" stroke-dashoffset="0" font-family="none" font-weight="none" font-size="none" text-anchor="none" style="mix-blend-mode: normal"><g><g><path d="M90,400v-200h420v200z" fill="#ffffff" stroke="#000000"/><path d="M90,220v-20h420v20z" fill="#000000" stroke="none"/><path d="M170,310v-10h140v10z" fill="#000000" stroke="none"/><path d="M170,325v-10h140v10z" fill="#000000" stroke="none"/><path d="M170,340v-5h120v5z" fill="#808080" stroke="none"/><path d="M170,350v-5h100v5z" fill="#808080" stroke="none"/><path d="M170,360v-5h110v5z" fill="#808080" stroke="none"/><path d="M170,370v-5h120v5z" fill="#808080" stroke="none"/></g><g fill="#763a56" stroke="none"><path d="M170,280v-60h260v60z"/><path d="M350,400v-110h120v110z"/><path d="M170,400v-20h140v20z"/></g></g><g><g><path d="M76.17111,508.55415v-360h756v360z" fill="#ffffff" stroke="#000000"/><path d="M76.17111,184.55415v-36h756v36z" fill="#000000" stroke="none"/><path d="M220.17111,346.55415v-18h252v18z" fill="#000000" stroke="none"/><path d="M220.17111,373.55415v-18h252v18z" fill="#000000" stroke="none"/><path d="M220.17111,400.55415v-9h216v9z" fill="#808080" stroke="none"/><path d="M220.17111,418.55415v-9h180v9z" fill="#808080" stroke="none"/><path d="M220.17111,436.55415v-9h198v9z" fill="#808080" stroke="none"/><path d="M220.17111,454.55415v-9h216v9z" fill="#808080" stroke="none"/></g><g fill="#763a56" stroke="none"><path d="M220.17111,292.55415v-108h468v108z"/><path d="M544.17111,508.55415v-198h216v198z"/><path d="M220.17111,508.55415v-36h252v36z"/></g></g><g><g><path d="M14.10523,248.33234v-320h672v320z" fill="#ffffff" stroke="#000000"/><path d="M14.10523,-39.66766v-32h672v32z" fill="#000000" stroke="none"/><path d="M142.10523,104.33234v-16h224v16z" fill="#000000" stroke="none"/><path d="M142.10523,128.33234v-16h224v16z" fill="#000000" stroke="none"/><path d="M142.10523,152.33234v-8h192v8z" fill="#808080" stroke="none"/><path d="M142.10523,168.33234v-8h160v8z" fill="#808080" stroke="none"/><path d="M142.10523,184.33234v-8h176v8z" fill="#808080" stroke="none"/><path d="M142.10523,200.33234v-8h192v8z" fill="#808080" stroke="none"/></g><g fill="#797a33" stroke="none"><path d="M142.10523,56.33234v-96h416v96z"/><path d="M430.10523,248.33234v-176h192v176z"/><path d="M142.10523,248.33234v-32h224v32z"/></g></g><g><g><path d="M-246.94622,402.33468v-280h588v280z" fill="#ffffff" stroke="#000000"/><path d="M-246.94622,150.33468v-28h588v28z" fill="#000000" stroke="none"/><path d="M-134.94622,276.33468v-14h196v14z" fill="#000000" stroke="none"/><path d="M-134.94622,297.33468v-14h196v14z" fill="#000000" stroke="none"/><path d="M-134.94622,318.33468v-7h168v7z" fill="#808080" stroke="none"/><path d="M-134.94622,332.33468v-7h140v7z" fill="#808080" stroke="none"/><path d="M-134.94622,346.33468v-7h154v7z" fill="#808080" stroke="none"/><path d="M-134.94622,360.33468v-7h168v7z" fill="#808080" stroke="none"/></g><g fill="#d34c56" stroke="none"><path d="M-134.94622,234.33468v-84h364v84z"/><path d="M117.05378,402.33468v-154h168v154z"/><path d="M-134.94622,402.33468v-28h196v28z"/></g></g><g><g><path d="M-84.17324,226.39259v-240h504v240z" fill="#ffffff" stroke="#000000"/><path d="M-84.17324,10.39259v-24h504v24z" fill="#000000" stroke="none"/><path d="M11.82676,118.39259v-12h168v12z" fill="#000000" stroke="none"/><path d="M11.82676,136.39259v-12h168v12z" fill="#000000" stroke="none"/><path d="M11.82676,154.39259v-6h144v6z" fill="#808080" stroke="none"/><path d="M11.82676,166.39259v-6h120v6z" fill="#808080" stroke="none"/><path d="M11.82676,178.39259v-6h132v6z" fill="#808080" stroke="none"/><path d="M11.82676,190.39259v-6h144v6z" fill="#808080" stroke="none"/></g><g fill="#a50b43" stroke="none"><path d="M11.82676,82.39259v-72h312v72z"/><path d="M227.82676,226.39259v-132h144v132z"/><path d="M11.82676,226.39259v-24h168v24z"/></g></g><g><g><path d="M-186.08086,237.77427v-200h420v200z" fill="#ffffff" stroke="#000000"/><path d="M-186.08086,57.77427v-20h420v20z" fill="#000000" stroke="none"/><path d="M-106.08086,147.77427v-10h140v10z" fill="#000000" stroke="none"/><path d="M-106.08086,162.77427v-10h140v10z" fill="#000000" stroke="none"/><path d="M-106.08086,177.77427v-5h120v5z" fill="#808080" stroke="none"/><path d="M-106.08086,187.77427v-5h100v5z" fill="#808080" stroke="none"/><path d="M-106.08086,197.77427v-5h110v5z" fill="#808080" stroke="none"/><path d="M-106.08086,207.77427v-5h120v5z" fill="#808080" stroke="none"/></g><g fill="#f61140" stroke="none"><path d="M-106.08086,117.77427v-60h260v60z"/><path d="M73.91914,237.77427v-110h120v110z"/><path d="M-106.08086,237.77427v-20h140v20z"/></g></g><g><g><path d="M256.30679,246.20727v-160h336v160z" fill="#ffffff" stroke="#000000"/><path d="M256.30679,102.20727v-16h336v16z" fill="#000000" stroke="none"/><path d="M320.30679,174.20727v-8h112v8z" fill="#000000" stroke="none"/><path d="M320.30679,186.20727v-8h112v8z" fill="#000000" stroke="none"/><path d="M320.30679,198.20727v-4h96v4z" fill="#808080" stroke="none"/><path d="M320.30679,206.20727v-4h80v4z" fill="#808080" stroke="none"/><path d="M320.30679,214.20727v-4h88v4z" fill="#808080" stroke="none"/><path d="M320.30679,222.20727v-4h96v4z" fill="#808080" stroke="none"/></g><g fill="#419bf3" stroke="none"><path d="M320.30679,150.20727v-48h208v48z"/><path d="M464.30679,246.20727v-88h96v88z"/><path d="M320.30679,246.20727v-16h112v16z"/></g></g><g><g><path d="M94.45763,206.5506v-120h252v120z" fill="#ffffff" stroke="#000000"/><path d="M94.45763,98.5506v-12h252v12z" fill="#000000" stroke="none"/><path d="M142.45763,152.5506v-6h84v6z" fill="#000000" stroke="none"/><path d="M142.45763,161.5506v-6h84v6z" fill="#000000" stroke="none"/><path d="M142.45763,170.5506v-3h72v3z" fill="#808080" stroke="none"/><path d="M142.45763,176.5506v-3h60v3z" fill="#808080" stroke="none"/><path d="M142.45763,182.5506v-3h66v3z" fill="#808080" stroke="none"/><path d="M142.45763,188.5506v-3h72v3z" fill="#808080" stroke="none"/></g><g fill="#13eb38" stroke="none"><path d="M142.45763,134.5506v-36h156v36z"/><path d="M250.45763,206.5506v-66h72v66z"/><path d="M142.45763,206.5506v-12h84v12z"/></g></g><g><g><path d="M38.07439,72.93803v-80h168v80z" fill="#ffffff" stroke="#000000"/><path d="M38.07439,0.93803v-8h168v8z" fill="#000000" stroke="none"/><path d="M70.07439,36.93803v-4h56v4z" fill="#000000" stroke="none"/><path d="M70.07439,42.93803v-4h56v4z" fill="#000000" stroke="none"/><path d="M70.07439,48.93803v-2h48v2z" fill="#808080" stroke="none"/><path d="M70.07439,52.93803v-2h40v2z" fill="#808080" stroke="none"/><path d="M70.07439,56.93803v-2h44v2z" fill="#808080" stroke="none"/><path d="M70.07439,60.93803v-2h48v2z" fill="#808080" stroke="none"/></g><g fill="#16b42e" stroke="none"><path d="M70.07439,24.93803v-24h104v24z"/><path d="M142.07439,72.93803v-44h48v44z"/><path d="M70.07439,72.93803v-8h56v8z"/></g></g><g><g><path d="M478.68673,35.73117v-40h84v40z" fill="#ffffff" stroke="#000000"/><path d="M478.68673,-0.26883v-4h84v4z" fill="#000000" stroke="none"/><path d="M494.68673,17.73117v-2h28v2z" fill="#000000" stroke="none"/><path d="M494.68673,20.73117v-2h28v2z" fill="#000000" stroke="none"/><path d="M494.68673,23.73117v-1h24v1z" fill="#808080" stroke="none"/><path d="M494.68673,25.73117v-1h20v1z" fill="#808080" stroke="none"/><path d="M494.68673,27.73117v-1h22v1z" fill="#808080" stroke="none"/><path d="M494.68673,29.73117v-1h24v1z" fill="#808080" stroke="none"/></g><g fill="#15a6f7" stroke="none"><path d="M494.68673,11.73117v-12h52v12z"/><path d="M530.68673,35.73117v-22h24v22z"/><path d="M494.68673,35.73117v-4h28v4z"/></g></g><g><g><path d="M369.20567,286.40475v0v0v0z" fill="#ffffff" stroke="#000000"/><path d="M369.20567,286.40475v0v0v0z" fill="#000000" stroke="none"/><path d="M369.20567,286.40475v0v0v0z" fill="#000000" stroke="none"/><path d="M369.20567,286.40475v0v0v0z" fill="#000000" stroke="none"/><path d="M369.20567,286.40475v0v0v0z" fill="#808080" stroke="none"/><path d="M369.20567,286.40475v0v0v0z" fill="#808080" stroke="none"/><path d="M369.20567,286.40475v0v0v0z" fill="#808080" stroke="none"/><path d="M369.20567,286.40475v0v0v0z" fill="#808080" stroke="none"/></g><g fill="#02b24c" stroke="none"><path d="M369.20567,286.40475v0v0v0z"/><path d="M369.20567,286.40475v0v0v0z"/><path d="M369.20567,286.40475v0v0v0z"/></g></g></g></svg>