<svg version="1.1" xmlns="http://www.w3.org/2000/svg" xmlns:xlink="http://www.w3.org/1999/xlink" width="600" height="600"><g fill="none" fill-rule="nonzero" stroke="none" stroke-width="1" stroke-linecap="butt" stroke-linejoin="miter" stroke-miterlimit="10" stroke-dasharray="" stroke-dashoffset="0" font-family="none" font-weight="none" font-size="none" text-anchor="none" style="mix-blend-mode: normal"><g><g><path d="M90,400v-200h420v200z" fill="#ffffff" stroke="#000000"/><path d="M90,220v-20h420v20z" fill="#000000" stroke="none"/><path d="M170,310v-10h140v10z" fill="#000000" stroke="none"/><path d="M170,325v-10h140v10z" fill="#000000" stroke="none"/><path d="M170,340v-5h120v5z" fill="#808080" stroke="none"/><path d="M170,350v-5h100v5z" fill="#808080" stroke="none"/><path d="M170,360v-5h110v5z" fill="#808080" stroke="none"/><path d="M170,370v-5h120v5z" fill="#808080" stroke="none"/></g><g fill="#10a6f6" stroke="none"><path d="M170,280v-60h260v60z"/><path d="M350,400v-110h120v110z"/><path d="M170,400v-20h140v20z"/></g></g><g><g><path d="M-323.65238,227.15391v-360h756v360z" fill="#ffffff" stroke="#000000"/><path d="M-323.65238,-96.84609v-36h756v36z" fill="#000000" stroke="none"/><path d="M-179.65238,65.15391v-18h252v18z" fill="#000000" stroke="none"/><path d="M-179.65238,92.15391v-18h252v18z" fill="#000000" stroke="none"/><path d="M-179.65238,119.15391v-9h216v9z" fill="#808080" stroke="none"/><path d="M-179.65238,137.15391v-9h180v9z" fill="#808080" stroke="none"/><path d="M-179.65238,155.15391v-9h198v9z" fill="#808080" stroke="none"/><path d="M-179.65238,173.15391v-9h216v9z" fill="#808080" stroke="none"/></g><g fill="#10a6f6" stroke="none"><path d="M-179.65238,11.15391v-108h468v108z"/><path d="M144.34762,227.15391v-198h216v198z"/><path d="M-179.65238,227.15391v-36h252v36z"/></g></g><g><g><path d="M-188.46744,183.10845v-320h672v320z" fill="#ffffff" stroke="#000000"/><path d="M-188.46744,-104.89155v-32h672v32z" fill="#000000" stroke="none"/><path d="M-60.46744,39.10845v-16h224v16z" fill="#000000" stroke="none"/><path d="M-60.46744,63.10845v-16h224v16z" fill="#000000" stroke="none"/><path d="M-60.46744,87.10845v-8h192v8z" fill="#808080" stroke="none"/><path d="M-60.46744,103.10845v-8h160v8z" fill="#808080" stroke="none"/><path d="M-60.46744,119.10845v-8h176v8z" fill="#808080" stroke="none"/><path d="M-60.46744,135.10845v-8h192v8z" fill="#808080" stroke="none"/></g><g fill="#3ee74e" stroke="none"><path d="M-60.46744,-8.89155v-96h416v96z"/><path d="M227.53256,183.10845v-176h192v176z"/><path d="M-60.46744,183.10845v-32h224v32z"/></g></g><g><g><path d="M-259.09832,668.89196v-280h588v280z" fill="#ffffff" stroke="#000000"/><path d="M-259.09832,416.89196v-28h588v28z" fill="#000000" stroke="none"/><path d="M-147.09832,542.89196v-14h196v14z" fill="#000000" stroke="none"/><path d="M-147.09832,563.89196v-14h196v14z" fill="#000000" stroke="none"/><path d="M-147.09832,584.89196v-7h168v7z" fill="#808080" stroke="none"/><path d="M-147.09832,598.89196v-7h140v7z" fill="#808080" stroke="none"/><path d="M-147.09832,612.89196v-7h154v7z" fill="#808080" stroke="none"/><path d="M-147.09832,626.89196v-7h168v7z" fill="#808080" stroke="none"/></g><g fill="#fc511a" stroke="none"><path d="M-147.09832,500.89196v-84h364v84z"/><path d="M104.90168,668.89196v-154h168v154z"/><path d="M-147.09832,668.89196v-28h196v28z"/></g></g><g><g><path d="M83.79869,231.67662v-240h504v240z" fill="#ffffff" stroke="#000000"/><path d="M83.79869,15.67662v-24h504v24z" fill="#000000" stroke="none"/><path d="M179.79869,123.67662v-12h168v12z" fill="#000000" stroke="none"/><path d="M179.79869,141.67662v-12h168v12z" fill="#000000" stroke="none"/><path d="M179.79869,159.67662v-6h144v6z" fill="#808080" stroke="none"/><path d="M179.79869,171.67662v-6h120v6z" fill="#808080" stroke="none"/><path d="M179.79869,183.67662v-6h132v6z" fill="#808080" stroke="none"/><path d="M179.79869,195.67662v-6h144v6z" fill="#808080" stroke="none"/></g><g fill="#1d8be8" stroke="none"><path d="M179.79869,87.67662v-72h312v72z"/><path d="M395.79869,231.67662v-132h144v132z"/><path d="M179.79869,231.67662v-24h168v24z"/></g></g><g><g><path d="M341.37381,368.49138v-200h420v200z" fill="#ffffff" stroke="#000000"/><path d="M341.37381,188.49138v-20h420v20z" fill="#000000" stroke="none"/><path d="M421.37381,278.49138v-10h140v10z" fill="#000000" stroke="none"/><path d="M421.37381,293.49138v-10h140v10z" fill="#000000" stroke="none"/><path d="M421.37381,308.49138v-5h120v5z" fill="#808080" stroke="none"/><path d="M421.37381,318.49138v-5h100v5z" fill="#808080" stroke="none"/><path d="M421.37381,328.49138v-5h110v5z" fill="#808080" stroke="none"/><path d="M421.37381,338.49138v-5h120v5z" fill="#808080" stroke="none"/></g><g fill="#ca936d" stroke="none"><path d="M421.37381,248.49138v-60h260v60z"/><path d="M601.37381,368.49138v-110h120v110z"/><path d="M421.37381,368.49138v-20h140v20z"/></g></g><g><g><path d="M159.14689,631.44547v-160h336v160z" fill="#ffffff" stroke="#000000"/><path d="M159.14689,487.44547v-16h336v16z" fill="#000000" stroke="none"/><path d="M223.14689,559.44547v-8h112v8z" fill="#000000" stroke="none"/><path d="M223.14689,571.44547v-8h112v8z" fill="#000000" stroke="none"/><path d="M223.14689,583.44547v-4h96v4z" fill="#808080" stroke="none"/><path d="M223.14689,591.44547v-4h80v4z" fill="#808080" stroke="none"/><path d="M223.14689,599.44547v-4h88v4z" fill="#808080" stroke="none"/><path d="M223.14689,607.44547v-4h96v4z" fill="#808080" stroke="none"/></g><g fill="#438a02" stroke="none"><path d="M223.14689,535.44547v-48h208v48z"/><path d="M367.14689,631.44547v-88h96v88z"/><path d="M223.14689,631.44547v-16h112v16z"/></g></g><g><g><path d="M301.25255,650.09448v-120h252v120z" fill="#ffffff" stroke="#000000"/><path d="M301.25255,542.09448v-12h252v12z" fill="#000000" stroke="none"/><path d="M349.25255,596.09448v-6h84v6z" fill="#000000" stroke="none"/><path d="M349.25255,605.09448v-6h84v6z" fill="#000000" stroke="none"/><path d="M349.25255,614.09448v-3h72v3z" fill="#808080" stroke="none"/><path d="M349.25255,620.09448v-3h60v3z" fill="#808080" stroke="none"/><path d="M349.25255,626.09448v-3h66v3z" fill="#808080" stroke="none"/><path d="M349.25255,632.09448v-3h72v3z" fill="#808080" stroke="none"/></g><g fill="#d7d37b" stroke="none"><path d="M349.25255,578.09448v-36h156v36z"/><path d="M457.25255,650.09448v-66h72v66z"/><path d="M349.25255,650.09448v-12h84v12z"/></g></g><g><g><path d="M192.37985,631.50905v-80h168v80z" fill="#ffffff" stroke="#000000"/><path d="M192.37985,559.50905v-8h168v8z" fill="#000000" stroke="none"/><path d="M224.37985,595.50905v-4h56v4z" fill="#000000" stroke="none"/><path d="M224.37985,601.50905v-4h56v4z" fill="#000000" stroke="none"/><path d="M224.37985,607.50905v-2h48v2z" fill="#808080" stroke="none"/><path d="M224.37985,611.50905v-2h40v2z" fill="#808080" stroke="none"/><path d="M224.37985,615.50905v-2h44v2z" fill="#808080" stroke="none"/><path d="M224.37985,619.50905v-2h48v2z" fill="#808080" stroke="none"/></g><g fill="#22537f" stroke="none"><path d="M224.37985,583.50905v-24h104v24z"/><path d="M296.37985,631.50905v-44h48v44z"/><path d="M224.37985,631.50905v-8h56v8z"/></g></g><g><g><path d="M147.70659,164.53941v-40h84v40z" fill="#ffffff" stroke="#000000"/><path d="M147.70659,128.53941v-4h84v4z" fill="#000000" stroke="none"/><path d="M163.70659,146.53941v-2h28v2z" fill="#000000" stroke="none"/><path d="M163.70659,149.53941v-2h28v2z" fill="#000000" stroke="none"/><path d="M163.70659,152.53941v-1h24v1z" fill="#808080" stroke="none"/><path d="M163.70659,154.53941v-1h20v1z" fill="#808080" stroke="none"/><path d="M163.70659,156.53941v-1h22v1z" fill="#808080" stroke="none"/><path d="M163.70659,158.53941v-1h24v1z" fill="#808080" stroke="none"/></g><g fill="#04159c" stroke="none"><path d="M163.70659,140.53941v-12h52v12z"/><path d="M199.70659,164.53941v-22h24v22z"/><path d="M163.70659,164.53941v-4h28v4z"/></g></g><g><g><path d="M383.28027,317.50628v0v0v0z" fill="#ffffff" stroke="#000000"/><path d="M383.28027,317.50628v0v0v0z" fill="#000000" stroke="none"/><path d="M383.28027,317.50628v0v0v0z" fill="#000000" stroke="none"/><path d="M383.28027,317.50628v0v0v0z" fill="#000000" stroke="none"/><path d="M383.28027,317.50628v0v0v0z" fill="#808080" stroke="none"/><path d="M383.28027,317.50628v0v0v0z" fill="#808080" stroke="none"/><path d="M383.28027,317.50628v0v0v0z" fill="#808080" stroke="none"/><path d="M383.28027,317.50628v0v0v0z" fill="#808080" stroke="none"/></g><g fill="#4d5d5c" stroke="none"><path d="M383.28027,317.50628v0v0v0z"/><path d="M383.28027,317.50628v0v0v0z"/><path d="M383.28027,317.50628v0v0v0z"/></g></g></g></svg>