<svg version="1.1" xmlns="http://www.w3.org/2000/svg" xmlns:xlink="http://www.w3.org/1999/xlink" width="600" height="600"><g fill="none" fill-rule="nonzero" stroke="none" stroke-width="1" stroke-linecap="butt" stroke-linejoin="miter" stroke-miterlimit="10" stroke-dasharray="" stroke-dashoffset="0" font-family="none" font-weight="none" font-size="none" text-anchor="none" style="mix-blend-mode: normal"><g><g><path d="M90,400v-200h420v200z" fill="#ffffff" stroke="#000000"/><path d="M90,220v-20h420v20z" fill="#000000" stroke="none"/><path d="M170,310v-10h140v10z" fill="#000000" stroke="none"/><path d="M170,325v-10h140v10z" fill="#000000" stroke="none"/><path d="M170,340v-5h120v5z" fill="#808080" stroke="none"/><path d="M170,350v-5h100v5z" fill="#808080" stroke="none"/><path d="M170,360v-5h110v5z" fill="#808080" stroke="none"/><path d="M170,370v-5h120v5z" fill="#808080" stroke="none"/></g><g fill="#8c1b18" stroke="none"><path d="M170,280v-60h260v60z"/><path d="M350,400v-110h120v110z"/><path d="M170,400v-20h140v20z"/></g></g><g><g><path d="M-25.6113,282.11894v-360h756v360z" fill="#ffffff" stroke="#000000"/><path d="M-25.6113,-41.88106v-36h756v36z" fill="#000000" stroke="none"/><path d="M118.3887,120.11894v-18h252v18z" fill="#000000" stroke="none"/><path d="M118.3887,147.11894v-18h252v18z" fill="#000000" stroke="none"/><path d="M118.3887,174.11894v-9h216v9z" fill="#808080" stroke="none"/><path d="M118.3887,192.11894v-9h180v9z" fill="#808080" stroke="none"/><path d="M118.3887,210.11894v-9h198v9z" fill="#808080" stroke="none"/><path d="M118.3887,228.11894v-9h216v9z" fill="#808080" stroke="none"/></g><g fill="#8c1b18" stroke="none"><path d="M118.3887,66.11894v-108h468v108z"/><path d="M442.3887,282.11894v-198h216v198z"/><path d="M118.3887,282.11894v-36h252v36z"/></g></g><g><g><path d="M-69.30198,578.48541v-320h672v320z" fill="#ffffff" stroke="#000000"/><path d="M-69.30198,290.48541v-32h672v32z" fill="#000000" stroke="none"/><path d="M58.69802,434.48541v-16h224v16z" fill="#000000" stroke="none"/><path d="M58.69802,458.48541v-16h224v16z" fill="#000000" stroke="none"/><path d="M58.69802,482.48541v-8h192v8z" fill="#808080" stroke="none"/><path d="M58.69802,498.48541v-8h160v8z" fill="#808080" stroke="none"/><path d="M58.69802,514.48541v-8h176v8z" fill="#808080" stroke="none"/><path d="M58.69802,530.48541v-8h192v8z" fill="#808080" stroke="none"/></g><g fill="#4937c7" stroke="none"><path d="M58.69802,386.48541v-96h416v96z"/><path d="M346.69802,578.48541v-176h192v176z"/><path d="M58.69802,578.48541v-32h224v32z"/></g></g><g><g><path d="M-59.59742,228.69952v-280h588v280z" fill="#ffffff" stroke="#000000"/><path d="M-59.59742,-23.30048v-28h588v28z" fill="#000000" stroke="none"/><path d="M52.40258,102.69952v-14h196v14z" fill="#000000" stroke="none"/><path d="M52.40258,123.69952v-14h196v14z" fill="#000000" stroke="none"/><path d="M52.40258,144.69952v-7h168v7z" fill="#808080" stroke="none"/><path d="M52.40258,158.69952v-7h140v7z" fill="#808080" stroke="none"/><path d="M52.40258,172.69952v-7h154v7z" fill="#808080" stroke="none"/><path d="M52.40258,186.69952v-7h168v7z" fill="#808080" stroke="none"/></g><g fill="#1d9fe0" stroke="none"><path d="M52.40258,60.69952v-84h364v84z"/><path d="M304.40258,228.69952v-154h168v154z"/><path d="M52.40258,228.69952v-28h196v28z"/></g></g><g><g><path d="M295.69235,560.29675v-240h504v240z" fill="#ffffff" stroke="#000000"/><path d="M295.69235,344.29675v-24h504v24z" fill="#000000" stroke="none"/><path d="M391.69235,452.29675v-12h168v12z" fill="#000000" stroke="none"/><path d="M391.69235,470.29675v-12h168v12z" fill="#000000" stroke="none"/><path d="M391.69235,488.29675v-6h144v6z" fill="#808080" stroke="none"/><path d="M391.69235,500.29675v-6h120v6z" fill="#808080" stroke="none"/><path d="M391.69235,512.29675v-6h132v6z" fill="#808080" stroke="none"/><path d="M391.69235,524.29675v-6h144v6z" fill="#808080" stroke="none"/></g><g fill="#79e9fc" stroke="none"><path d="M391.69235,416.29675v-72h312v72z"/><path d="M607.69235,560.29675v-132h144v132z"/><path d="M391.69235,560.29675v-24h168v24z"/></g></g><g><g><path d="M200.20362,543.95635v-200h420v200z" fill="#ffffff" stroke="#000000"/><path d="M200.20362,363.95635v-20h420v20z" fill="#000000" stroke="none"/><path d="M280.20362,453.95635v-10h140v10z" fill="#000000" stroke="none"/><path d="M280.20362,468.95635v-10h140v10z" fill="#000000" stroke="none"/><path d="M280.20362,483.95635v-5h120v5z" fill="#808080" stroke="none"/><path d="M280.20362,493.95635v-5h100v5z" fill="#808080" stroke="none"/><path d="M280.20362,503.95635v-5h110v5z" fill="#808080" stroke="none"/><path d="M280.20362,513.95635v-5h120v5z" fill="#808080" stroke="none"/></g><g fill="#951e04" stroke="none"><path d="M280.20362,423.95635v-60h260v60z"/><path d="M460.20362,543.95635v-110h120v110z"/><path d="M280.20362,543.95635v-20h140v20z"/></g></g><g><g><path d="M-67.75409,522.6753v-160h336v160z" fill="#ffffff" stroke="#000000"/><path d="M-67.75409,378.6753v-16h336v16z" fill="#000000" stroke="none"/><path d="M-3.75409,450.6753v-8h112v8z" fill="#000000" stroke="none"/><path d="M-3.75409,462.6753v-8h112v8z" fill="#000000" stroke="none"/><path d="M-3.75409,474.6753v-4h96v4z" fill="#808080" stroke="none"/><path d="M-3.75409,482.6753v-4h80v4z" fill="#808080" stroke="none"/><path d="M-3.75409,490.6753v-4h88v4z" fill="#808080" stroke="none"/><path d="M-3.75409,498.6753v-4h96v4z" fill="#808080" stroke="none"/></g><g fill="#0eb7d1" stroke="none"><path d="M-3.75409,426.6753v-48h208v48z"/><path d="M140.24591,522.6753v-88h96v88z"/><path d="M-3.75409,522.6753v-16h112v16z"/></g></g><g><g><path d="M-19.37392,117.44494v-120h252v120z" fill="#ffffff" stroke="#000000"/><path d="M-19.37392,9.44494v-12h252v12z" fill="#000000" stroke="none"/><path d="M28.62608,63.44494v-6h84v6z" fill="#000000" stroke="none"/><path d="M28.62608,72.44494v-6h84v6z" fill="#000000" stroke="none"/><path d="M28.62608,81.44494v-3h72v3z" fill="#808080" stroke="none"/><path d="M28.62608,87.44494v-3h60v3z" fill="#808080" stroke="none"/><path d="M28.62608,93.44494v-3h66v3z" fill="#808080" stroke="none"/><path d="M28.62608,99.44494v-3h72v3z" fill="#808080" stroke="none"/></g><g fill="#ea3a38" stroke="none"><path d="M28.62608,45.44494v-36h156v36z"/><path d="M136.62608,117.44494v-66h72v66z"/><path d="M28.62608,117.44494v-12h84v12z"/></g></g><g><g><path d="M-34.81373,541.32977v-80h168v80z" fill="#ffffff" stroke="#000000"/><path d="M-34.81373,469.32977v-8h168v8z" fill="#000000" stroke="none"/><path d="M-2.81373,505.32977v-4h56v4z" fill="#000000" stroke="none"/><path d="M-2.81373,511.32977v-4h56v4z" fill="#000000" stroke="none"/><path d="M-2.81373,517.32977v-2h48v2z" fill="#808080" stroke="none"/><path d="M-2.81373,521.32977v-2h40v2z" fill="#808080" stroke="none"/><path d="M-2.81373,525.32977v-2h44v2z" fill="#808080" stroke="none"/><path d="M-2.81373,529.32977v-2h48v2z" fill="#808080" stroke="none"/></g><g fill="#1718ec" stroke="none"><path d="M-2.81373,493.32977v-24h104v24z"/><path d="M69.18627,541.32977v-44h48v44z"/><path d="M-2.81373,541.32977v-8h56v8z"/></g></g><g><g><path d="M398.07404,428.64562v-40h84v40z" fill="#ffffff" stroke="#000000"/><path d="M398.07404,392.64562v-4h84v4z" fill="#000000" stroke="none"/><path d="M414.07404,410.64562v-2h28v2z" fill="#000000" stroke="none"/><path d="M414.07404,413.64562v-2h28v2z" fill="#000000" stroke="none"/><path d="M414.07404,416.64562v-1h24v1z" fill="#808080" stroke="none"/><path d="M414.07404,418.64562v-1h20v1z" fill="#808080" stroke="none"/><path d="M414.07404,420.64562v-1h22v1z" fill="#808080" stroke="none"/><path d="M414.07404,422.64562v-1h24v1z" fill="#808080" stroke="none"/></g><g fill="#4e8349" stroke="none"><path d="M414.07404,404.64562v-12h52v12z"/><path d="M450.07404,428.64562v-22h24v22z"/><path d="M414.07404,428.64562v-4h28v4z"/></g></g><g><g><path d="M125.78059,283.16591v0v0v0z" fill="#ffffff" stroke="#000000"/><path d="M125.78059,283.16591v0v0v0z" fill="#000000" stroke="none"/><path d="M125.78059,283.16591v0v0v0z" fill="#000000" stroke="none"/><path d="M125.78059,283.16591v0v0v0z" fill="#000000" stroke="none"/><path d="M125.78059,283.16591v0v0v0z" fill="#808080" stroke="none"/><path d="M125.78059,283.16591v0v0v0z" fill="#808080" stroke="none"/><path d="M125.78059,283.16591v0v0v0z" fill="#808080" stroke="none"/><path d="M125.78059,283.16591v0v0v0z" fill="#808080" stroke="none"/></g><g fill="#6b361a" stroke="none"><path d="M125.78059,283.16591v0v0v0z"/><path d="M125.78059,283.16591v0v0v0z"/><path d="M125.78059,283.16591v0v0v0z"/></g></g></g></svg>