<svg version="1.1" xmlns="http://www.w3.org/2000/svg" xmlns:xlink="http://www.w3.org/1999/xlink" width="600" height="600"><g fill="none" fill-rule="nonzero" stroke="none" stroke-width="1" stroke-linecap="butt" stroke-linejoin="miter" stroke-miterlimit="10" stroke-dasharray="" stroke-dashoffset="0" font-family="none" font-weight="none" font-size="none" text-anchor="none" style="mix-blend-mode: normal"><g><g><path d="M90,400v-200h420v200z" fill="#ffffff" stroke="#000000"/><path d="M90,220v-20h420v20z" fill="#000000" stroke="none"/><path d="M170,310v-10h140v10z" fill="#000000" stroke="none"/><path d="M170,325v-10h140v10z" fill="#000000" stroke="none"/><path d="M170,340v-5h120v5z" fill="#808080" stroke="none"/><path d="M170,350v-5h100v5z" fill="#808080" stroke="none"/><path d="M170,360v-5h110v5z" fill="#808080" stroke="none"/><path d="M170,370v-5h120v5z" fill="#808080" stroke="none"/></g><g fill="#f3abd2" stroke="none"><path d="M170,280v-60h260v60z"/><path d="M350,400v-110h120v110z"/><path d="M170,400v-20h140v20z"/></g></g><g><g><path d="M-114.18052,207.83348v-360h756v360z" fill="#ffffff" stroke="#000000"/><path d="M-114.18052,-116.16652v-36h756v36z" fill="#000000" stroke="none"/><path d="M29.81948,45.83348v-18h252v18z" fill="#000000" stroke="none"/><path d="M29.81948,72.83348v-18h252v18z" fill="#000000" stroke="none"/><path d="M29.81948,99.83348v-9h216v9z" fill="#808080" stroke="none"/><path d="M29.81948,117.83348v-9h180v9z" fill="#808080" stroke="none"/><path d="M29.81948,135.83348v-9h198v9z" fill="#808080" stroke="none"/><path d="M29.81948,153.83348v-9h216v9z" fill="#808080" stroke="none"/></g><g fill="#f3abd2" stroke="none"><path d="M29.81948,-8.16652v-108h468v108z"/><path d="M353.81948,207.83348v-198h216v198z"/><path d="M29.81948,207.83348v-36h252v36z"/></g></g><g><g><path d="M-74.69009,420.25514v-320h672v320z" fill="#ffffff" stroke="#000000"/><path d="M-74.69009,132.25514v-32h672v32z" fill="#000000" stroke="none"/><path d="M53.30991,276.25514v-16h224v16z" fill="#000000" stroke="none"/><path d="M53.30991,300.25514v-16h224v16z" fill="#000000" stroke="none"/><path d="M53.30991,324.25514v-8h192v8z" fill="#808080" stroke="none"/><path d="M53.30991,340.25514v-8h160v8z" fill="#808080" stroke="none"/><path d="M53.30991,356.25514v-8h176v8z" fill="#808080" stroke="none"/><path d="M53.30991,372.25514v-8h192v8z" fill="#808080" stroke="none"/></g><g fill="#80a487" stroke="none"><path d="M53.30991,228.25514v-96h416v96z"/><path d="M341.30991,420.25514v-176h192v176z"/><path d="M53.30991,420.25514v-32h224v32z"/></g></g><g><g><path d="M-204.96092,434.03047v-280h588v280z" fill="#ffffff" stroke="#000000"/><path d="M-204.96092,182.03047v-28h588v28z" fill="#000000" stroke="none"/><path d="M-92.96092,308.03047v-14h196v14z" fill="#000000" stroke="none"/><path d="M-92.96092,329.03047v-14h196v14z" fill="#000000" stroke="none"/><path d="M-92.96092,350.03047v-7h168v7z" fill="#808080" stroke="none"/><path d="M-92.96092,364.03047v-7h140v7z" fill="#808080" stroke="none"/><path d="M-92.96092,378.03047v-7h154v7z" fill="#808080" stroke="none"/><path d="M-92.96092,392.03047v-7h168v7z" fill="#808080" stroke="none"/></g><g fill="#f0d40b" stroke="none"><path d="M-92.96092,266.03047v-84h364v84z"/><path d="M159.03908,434.03047v-154h168v154z"/><path d="M-92.96092,434.03047v-28h196v28z"/></g></g><g><g><path d="M-199.98416,544.98021v-240h504v240z" fill="#ffffff" stroke="#000000"/><path d="M-199.98416,328.98021v-24h504v24z" fill="#000000" stroke="none"/><path d="M-103.98416,436.98021v-12h168v12z" fill="#000000" stroke="none"/><path d="M-103.98416,454.98021v-12h168v12z" fill="#000000" stroke="none"/><path d="M-103.98416,472.98021v-6h144v6z" fill="#808080" stroke="none"/><path d="M-103.98416,484.98021v-6h120v6z" fill="#808080" stroke="none"/><path d="M-103.98416,496.98021v-6h132v6z" fill="#808080" stroke="none"/><path d="M-103.98416,508.98021v-6h144v6z" fill="#808080" stroke="none"/></g><g fill="#2e464d" stroke="none"><path d="M-103.98416,400.98021v-72h312v72z"/><path d="M112.01584,544.98021v-132h144v132z"/><path d="M-103.98416,544.98021v-24h168v24z"/></g></g><g><g><path d="M-152.08254,350.22879v-200h420v200z" fill="#ffffff" stroke="#000000"/><path d="M-152.08254,170.22879v-20h420v20z" fill="#000000" stroke="none"/><path d="M-72.08254,260.22879v-10h140v10z" fill="#000000" stroke="none"/><path d="M-72.08254,275.22879v-10h140v10z" fill="#000000" stroke="none"/><path d="M-72.08254,290.22879v-5h120v5z" fill="#808080" stroke="none"/><path d="M-72.08254,300.22879v-5h100v5z" fill="#808080" stroke="none"/><path d="M-72.08254,310.22879v-5h110v5z" fill="#808080" stroke="none"/><path d="M-72.08254,320.22879v-5h120v5z" fill="#808080" stroke="none"/></g><g fill="#3ca6f2" stroke="none"><path d="M-72.08254,230.22879v-60h260v60z"/><path d="M107.91746,350.22879v-110h120v110z"/><path d="M-72.08254,350.22879v-20h140v20z"/></g></g><g><g><path d="M192.65506,590.07509v-160h336v160z" fill="#ffffff" stroke="#000000"/><path d="M192.65506,446.07509v-16h336v16z" fill="#000000" stroke="none"/><path d="M256.65506,518.07509v-8h112v8z" fill="#000000" stroke="none"/><path d="M256.65506,530.07509v-8h112v8z" fill="#000000" stroke="none"/><path d="M256.65506,542.07509v-4h96v4z" fill="#808080" stroke="none"/><path d="M256.65506,550.07509v-4h80v4z" fill="#808080" stroke="none"/><path d="M256.65506,558.07509v-4h88v4z" fill="#808080" stroke="none"/><path d="M256.65506,566.07509v-4h96v4z" fill="#808080" stroke="none"/></g><g fill="#1250ea" stroke="none"><path d="M256.65506,494.07509v-48h208v48z"/><path d="M400.65506,590.07509v-88h96v88z"/><path d="M256.65506,590.07509v-16h112v16z"/></g></g><g><g><path d="M112.4204,215.26359v-120h252v120z" fill="#ffffff" stroke="#000000"/><path d="M112.4204,107.26359v-12h252v12z" fill="#000000" stroke="none"/><path d="M160.4204,161.26359v-6h84v6z" fill="#000000" stroke="none"/><path d="M160.4204,170.26359v-6h84v6z" fill="#000000" stroke="none"/><path d="M160.4204,179.26359v-3h72v3z" fill="#808080" stroke="none"/><path d="M160.4204,185.26359v-3h60v3z" fill="#808080" stroke="none"/><path d="M160.4204,191.26359v-3h66v3z" fill="#808080" stroke="none"/><path d="M160.4204,197.26359v-3h72v3z" fill="#808080" stroke="none"/></g><g fill="#7aabf4" stroke="none"><path d="M160.4204,143.26359v-36h156v36z"/><path d="M268.4204,215.26359v-66h72v66z"/><path d="M160.4204,215.26359v-12h84v12z"/></g></g><g><g><path d="M444.56054,194.80178v-80h168v80z" fill="#ffffff" stroke="#000000"/><path d="M444.56054,122.80178v-8h168v8z" fill="#000000" stroke="none"/><path d="M476.56054,158.80178v-4h56v4z" fill="#000000" stroke="none"/><path d="M476.56054,164.80178v-4h56v4z" fill="#000000" stroke="none"/><path d="M476.56054,170.80178v-2h48v2z" fill="#808080" stroke="none"/><path d="M476.56054,174.80178v-2h40v2z" fill="#808080" stroke="none"/><path d="M476.56054,178.80178v-2h44v2z" fill="#808080" stroke="none"/><path d="M476.56054,182.80178v-2h48v2z" fill="#808080" stroke="none"/></g><g fill="#826f66" stroke="none"><path d="M476.56054,146.80178v-24h104v24z"/><path d="M548.56054,194.80178v-44h48v44z"/><path d="M476.56054,194.80178v-8h56v8z"/></g></g><g><g><path d="M506.11124,229.05432v-40h84v40z" fill="#ffffff" stroke="#000000"/><path d="M506.11124,193.05432v-4h84v4z" fill="#000000" stroke="none"/><path d="M522.11124,211.05432v-2h28v2z" fill="#000000" stroke="none"/><path d="M522.11124,214.05432v-2h28v2z" fill="#000000" stroke="none"/><path d="M522.11124,217.05432v-1h24v1z" fill="#808080" stroke="none"/><path d="M522.11124,219.05432v-1h20v1z" fill="#808080" stroke="none"/><path d="M522.11124,221.05432v-1h22v1z" fill="#808080" stroke="none"/><path d="M522.11124,223.05432v-1h24v1z" fill="#808080" stroke="none"/></g><g fill="#366a79" stroke="none"><path d="M522.11124,205.05432v-12h52v12z"/><path d="M558.11124,229.05432v-22h24v22z"/><path d="M522.11124,229.05432v-4h28v4z"/></g></g><g><g><path d="M358.75759,430.58825v0v0v0z" fill="#ffffff" stroke="#000000"/><path d="M358.75759,430.58825v0v0v0z" fill="#000000" stroke="none"/><path d="M358.75759,430.58825v0v0v0z" fill="#000000" stroke="none"/><path d="M358.75759,430.58825v0v0v0z" fill="#000000" stroke="none"/><path d="M358.75759,430.58825v0v0v0z" fill="#808080" stroke="none"/><path d="M358.75759,430.58825v0v0v0z" fill="#808080" stroke="none"/><path d="M358.75759,430.58825v0v0v0z" fill="#808080" stroke="none"/><path d="M358.75759,430.58825v0v0v0z" fill="#808080" stroke="none"/></g><g fill="#0e112f" stroke="none"><path d="M358.75759,430.58825v0v0v0z"/><path d="M358.75759,430.58825v0v0v0z"/><path d="M358.75759,430.58825v0v0v0z"/></g></g></g></svg>