<svg version="1.1" xmlns="http://www.w3.org/2000/svg" xmlns:xlink="http://www.w3.org/1999/xlink" width="600" height="600"><g fill="none" fill-rule="nonzero" stroke="none" stroke-width="1" stroke-linecap="butt" stroke-linejoin="miter" stroke-miterlimit="10" stroke-dasharray="" stroke-dashoffset="0" font-family="none" font-weight="none" font-size="none" text-anchor="none" style="mix-blend-mode: normal"><g><g><path d="M90,400v-200h420v200z" fill="#ffffff" stroke="#000000"/><path d="M90,220v-20h420v20z" fill="#000000" stroke="none"/><path d="M170,310v-10h140v10z" fill="#000000" stroke="none"/><path d="M170,325v-10h140v10z" fill="#000000" stroke="none"/><path d="M170,340v-5h120v5z" fill="#808080" stroke="none"/><path d="M170,350v-5h100v5z" fill="#808080" stroke="none"/><path d="M170,360v-5h110v5z" fill="#808080" stroke="none"/><path d="M170,370v-5h120v5z" fill="#808080" stroke="none"/></g><g fill="#9c13f0" stroke="none"><path d="M170,280v-60h260v60z"/><path d="M350,400v-110h120v110z"/><path d="M170,400v-20h140v20z"/></g></g><g><g><path d="M-253.42531,425.99227v-360h756v360z" fill="#ffffff" stroke="#000000"/><path d="M-253.42531,101.99227v-36h756v36z" fill="#000000" stroke="none"/><path d="M-109.42531,263.99227v-18h252v18z" fill="#000000" stroke="none"/><path d="M-109.42531,290.99227v-18h252v18z" fill="#000000" stroke="none"/><path d="M-109.42531,317.99227v-9h216v9z" fill="#808080" stroke="none"/><path d="M-109.42531,335.99227v-9h180v9z" fill="#808080" stroke="none"/><path d="M-109.42531,353.99227v-9h198v9z" fill="#808080" stroke="none"/><path d="M-109.42531,371.99227v-9h216v9z" fill="#808080" stroke="none"/></g><g fill="#9c13f0" stroke="none"><path d="M-109.42531,209.99227v-108h468v108z"/><path d="M214.57469,425.99227v-198h216v198z"/><path d="M-109.42531,425.99227v-36h252v36z"/></g></g><g><g><path d="M-46.24143,361.19989v-320h672v320z" fill="#ffffff" stroke="#000000"/><path d="M-46.24143,73.19989v-32h672v32z" fill="#000000" stroke="none"/><path d="M81.75857,217.19989v-16h224v16z" fill="#000000" stroke="none"/><path d="M81.75857,241.19989v-16h224v16z" fill="#000000" stroke="none"/><path d="M81.75857,265.19989v-8h192v8z" fill="#808080" stroke="none"/><path d="M81.75857,281.19989v-8h160v8z" fill="#808080" stroke="none"/><path d="M81.75857,297.19989v-8h176v8z" fill="#808080" stroke="none"/><path d="M81.75857,313.19989v-8h192v8z" fill="#808080" stroke="none"/></g><g fill="#a24465" stroke="none"><path d="M81.75857,169.19989v-96h416v96z"/><path d="M369.75857,361.19989v-176h192v176z"/><path d="M81.75857,361.19989v-32h224v32z"/></g></g><g><g><path d="M-68.94876,517.00866v-280h588v280z" fill="#ffffff" stroke="#000000"/><path d="M-68.94876,265.00866v-28h588v28z" fill="#000000" stroke="none"/><path d="M43.05124,391.00866v-14h196v14z" fill="#000000" stroke="none"/><path d="M43.05124,412.00866v-14h196v14z" fill="#000000" stroke="none"/><path d="M43.05124,433.00866v-7h168v7z" fill="#808080" stroke="none"/><path d="M43.05124,447.00866v-7h140v7z" fill="#808080" stroke="none"/><path d="M43.05124,461.00866v-7h154v7z" fill="#808080" stroke="none"/><path d="M43.05124,475.00866v-7h168v7z" fill="#808080" stroke="none"/></g><g fill="#cae55e" stroke="none"><path d="M43.05124,349.00866v-84h364v84z"/><path d="M295.05124,517.00866v-154h168v154z"/><path d="M43.05124,517.00866v-28h196v28z"/></g></g><g><g><path d="M54.43428,312.45607v-240h504v240z" fill="#ffffff" stroke="#000000"/><path d="M54.43428,96.45607v-24h504v24z" fill="#000000" stroke="none"/><path d="M150.43428,204.45607v-12h168v12z" fill="#000000" stroke="none"/><path d="M150.43428,222.45607v-12h168v12z" fill="#000000" stroke="none"/><path d="M150.43428,240.45607v-6h144v6z" fill="#808080" stroke="none"/><path d="M150.43428,252.45607v-6h120v6z" fill="#808080" stroke="none"/><path d="M150.43428,264.45607v-6h132v6z" fill="#808080" stroke="none"/><path d="M150.43428,276.45607v-6h144v6z" fill="#808080" stroke="none"/></g><g fill="#af320f" stroke="none"><path d="M150.43428,168.45607v-72h312v72z"/><path d="M366.43428,312.45607v-132h144v132z"/><path d="M150.43428,312.45607v-24h168v24z"/></g></g><g><g><path d="M390.67683,669.50879v-200h420v200z" fill="#ffffff" stroke="#000000"/><path d="M390.67683,489.50879v-20h420v20z" fill="#000000" stroke="none"/><path d="M470.67683,579.50879v-10h140v10z" fill="#000000" stroke="none"/><path d="M470.67683,594.50879v-10h140v10z" fill="#000000" stroke="none"/><path d="M470.67683,609.50879v-5h120v5z" fill="#808080" stroke="none"/><path d="M470.67683,619.50879v-5h100v5z" fill="#808080" stroke="none"/><path d="M470.67683,629.50879v-5h110v5z" fill="#808080" stroke="none"/><path d="M470.67683,639.50879v-5h120v5z" fill="#808080" stroke="none"/></g><g fill="#97aa60" stroke="none"><path d="M470.67683,549.50879v-60h260v60z"/><path d="M650.67683,669.50879v-110h120v110z"/><path d="M470.67683,669.50879v-20h140v20z"/></g></g><g><g><path d="M277.27877,561.43865v-160h336v160z" fill="#ffffff" stroke="#000000"/><path d="M277.27877,417.43865v-16h336v16z" fill="#000000" stroke="none"/><path d="M341.27877,489.43865v-8h112v8z" fill="#000000" stroke="none"/><path d="M341.27877,501.43865v-8h112v8z" fill="#000000" stroke="none"/><path d="M341.27877,513.43865v-4h96v4z" fill="#808080" stroke="none"/><path d="M341.27877,521.43865v-4h80v4z" fill="#808080" stroke="none"/><path d="M341.27877,529.43865v-4h88v4z" fill="#808080" stroke="none"/><path d="M341.27877,537.43865v-4h96v4z" fill="#808080" stroke="none"/></g><g fill="#6cb068" stroke="none"><path d="M341.27877,465.43865v-48h208v48z"/><path d="M485.27877,561.43865v-88h96v88z"/><path d="M341.27877,561.43865v-16h112v16z"/></g></g><g><g><path d="M159.10242,104.6234v-120h252v120z" fill="#ffffff" stroke="#000000"/><path d="M159.10242,-3.3766v-12h252v12z" fill="#000000" stroke="none"/><path d="M207.10242,50.6234v-6h84v6z" fill="#000000" stroke="none"/><path d="M207.10242,59.6234v-6h84v6z" fill="#000000" stroke="none"/><path d="M207.10242,68.6234v-3h72v3z" fill="#808080" stroke="none"/><path d="M207.10242,74.6234v-3h60v3z" fill="#808080" stroke="none"/><path d="M207.10242,80.6234v-3h66v3z" fill="#808080" stroke="none"/><path d="M207.10242,86.6234v-3h72v3z" fill="#808080" stroke="none"/></g><g fill="#588cb2" stroke="none"><path d="M207.10242,32.6234v-36h156v36z"/><path d="M315.10242,104.6234v-66h72v66z"/><path d="M207.10242,104.6234v-12h84v12z"/></g></g><g><g><path d="M200.26468,582.5951v-80h168v80z" fill="#ffffff" stroke="#000000"/><path d="M200.26468,510.5951v-8h168v8z" fill="#000000" stroke="none"/><path d="M232.26468,546.5951v-4h56v4z" fill="#000000" stroke="none"/><path d="M232.26468,552.5951v-4h56v4z" fill="#000000" stroke="none"/><path d="M232.26468,558.5951v-2h48v2z" fill="#808080" stroke="none"/><path d="M232.26468,562.5951v-2h40v2z" fill="#808080" stroke="none"/><path d="M232.26468,566.5951v-2h44v2z" fill="#808080" stroke="none"/><path d="M232.26468,570.5951v-2h48v2z" fill="#808080" stroke="none"/></g><g fill="#a399d4" stroke="none"><path d="M232.26468,534.5951v-24h104v24z"/><path d="M304.26468,582.5951v-44h48v44z"/><path d="M232.26468,582.5951v-8h56v8z"/></g></g><g><g><path d="M364.98824,285.05854v-40h84v40z" fill="#ffffff" stroke="#000000"/><path d="M364.98824,249.05854v-4h84v4z" fill="#000000" stroke="none"/><path d="M380.98824,267.05854v-2h28v2z" fill="#000000" stroke="none"/><path d="M380.98824,270.05854v-2h28v2z" fill="#000000" stroke="none"/><path d="M380.98824,273.05854v-1h24v1z" fill="#808080" stroke="none"/><path d="M380.98824,275.05854v-1h20v1z" fill="#808080" stroke="none"/><path d="M380.98824,277.05854v-1h22v1z" fill="#808080" stroke="none"/><path d="M380.98824,279.05854v-1h24v1z" fill="#808080" stroke="none"/></g><g fill="#e198b0" stroke="none"><path d="M380.98824,261.05854v-12h52v12z"/><path d="M416.98824,285.05854v-22h24v22z"/><path d="M380.98824,285.05854v-4h28v4z"/></g></g><g><g><path d="M93.85189,282.24977v0v0v0z" fill="#ffffff" stroke="#000000"/><path d="M93.85189,282.24977v0v0v0z" fill="#000000" stroke="none"/><path d="M93.85189,282.24977v0v0v0z" fill="#000000" stroke="none"/><path d="M93.85189,282.24977v0v0v0z" fill="#000000" stroke="none"/><path d="M93.85189,282.24977v0v0v0z" fill="#808080" stroke="none"/><path d="M93.85189,282.24977v0v0v0z" fill="#808080" stroke="none"/><path d="M93.85189,282.24977v0v0v0z" fill="#808080" stroke="none"/><path d="M93.85189,282.24977v0v0v0z" fill="#808080" stroke="none"/></g><g fill="#1fbbeb" stroke="none"><path d="M93.85189,282.24977v0v0v0z"/><path d="M93.85189,282.24977v0v0v0z"/><path d="M93.85189,282.24977v0v0v0z"/></g></g></g></svg>