<svg version="1.1" xmlns="http://www.w3.org/2000/svg" xmlns:xlink="http://www.w3.org/1999/xlink" width="600" height="600"><g fill="none" fill-rule="nonzero" stroke="none" stroke-width="1" stroke-linecap="butt" stroke-linejoin="miter" stroke-miterlimit="10" stroke-dasharray="" stroke-dashoffset="0" font-family="none" font-weight="none" font-size="none" text-anchor="none" style="mix-blend-mode: normal"><g><g><path d="M90,400v-200h420v200z" fill="#ffffff" stroke="#000000"/><path d="M90,220v-20h420v20z" fill="#000000" stroke="none"/><path d="M170,310v-10h140v10z" fill="#000000" stroke="none"/><path d="M170,325v-10h140v10z" fill="#000000" stroke="none"/><path d="M170,340v-5h120v5z" fill="#808080" stroke="none"/><path d="M170,350v-5h100v5z" fill="#808080" stroke="none"/><path d="M170,360v-5h110v5z" fill="#808080" stroke="none"/><path d="M170,370v-5h120v5z" fill="#808080" stroke="none"/></g><g fill="#4ceccc" stroke="none"><path d="M170,280v-60h260v60z"/><path d="M350,400v-110h120v110z"/><path d="M170,400v-20h140v20z"/></g></g><g><g><path d="M1.08299,301.30651v-360h756v360z" fill="#ffffff" stroke="#000000"/><path d="M1.08299,-22.69349v-36h756v36z" fill="#000000" stroke="none"/><path d="M145.08299,139.30651v-18h252v18z" fill="#000000" stroke="none"/><path d="M145.08299,166.30651v-18h252v18z" fill="#000000" stroke="none"/><path d="M145.08299,193.30651v-9h216v9z" fill="#808080" stroke="none"/><path d="M145.08299,211.30651v-9h180v9z" fill="#808080" stroke="none"/><path d="M145.08299,229.30651v-9h198v9z" fill="#808080" stroke="none"/><path d="M145.08299,247.30651v-9h216v9z" fill="#808080" stroke="none"/></g><g fill="#4ceccc" stroke="none"><path d="M145.08299,85.30651v-108h468v108z"/><path d="M469.08299,301.30651v-198h216v198z"/><path d="M145.08299,301.30651v-36h252v36z"/></g></g><g><g><path d="M-73.55695,471.33936v-320h672v320z" fill="#ffffff" stroke="#000000"/><path d="M-73.55695,183.33936v-32h672v32z" fill="#000000" stroke="none"/><path d="M54.44305,327.33936v-16h224v16z" fill="#000000" stroke="none"/><path d="M54.44305,351.33936v-16h224v16z" fill="#000000" stroke="none"/><path d="M54.44305,375.33936v-8h192v8z" fill="#808080" stroke="none"/><path d="M54.44305,391.33936v-8h160v8z" fill="#808080" stroke="none"/><path d="M54.44305,407.33936v-8h176v8z" fill="#808080" stroke="none"/><path d="M54.44305,423.33936v-8h192v8z" fill="#808080" stroke="none"/></g><g fill="#939550" stroke="none"><path d="M54.44305,279.33936v-96h416v96z"/><path d="M342.44305,471.33936v-176h192v176z"/><path d="M54.44305,471.33936v-32h224v32z"/></g></g><g><g><path d="M192.02614,281.48436v-280h588v280z" fill="#ffffff" stroke="#000000"/><path d="M192.02614,29.48436v-28h588v28z" fill="#000000" stroke="none"/><path d="M304.02614,155.48436v-14h196v14z" fill="#000000" stroke="none"/><path d="M304.02614,176.48436v-14h196v14z" fill="#000000" stroke="none"/><path d="M304.02614,197.48436v-7h168v7z" fill="#808080" stroke="none"/><path d="M304.02614,211.48436v-7h140v7z" fill="#808080" stroke="none"/><path d="M304.02614,225.48436v-7h154v7z" fill="#808080" stroke="none"/><path d="M304.02614,239.48436v-7h168v7z" fill="#808080" stroke="none"/></g><g fill="#314ee8" stroke="none"><path d="M304.02614,113.48436v-84h364v84z"/><path d="M556.02614,281.48436v-154h168v154z"/><path d="M304.02614,281.48436v-28h196v28z"/></g></g><g><g><path d="M342.68253,392.81318v-240h504v240z" fill="#ffffff" stroke="#000000"/><path d="M342.68253,176.81318v-24h504v24z" fill="#000000" stroke="none"/><path d="M438.68253,284.81318v-12h168v12z" fill="#000000" stroke="none"/><path d="M438.68253,302.81318v-12h168v12z" fill="#000000" stroke="none"/><path d="M438.68253,320.81318v-6h144v6z" fill="#808080" stroke="none"/><path d="M438.68253,332.81318v-6h120v6z" fill="#808080" stroke="none"/><path d="M438.68253,344.81318v-6h132v6z" fill="#808080" stroke="none"/><path d="M438.68253,356.81318v-6h144v6z" fill="#808080" stroke="none"/></g><g fill="#d79d37" stroke="none"><path d="M438.68253,248.81318v-72h312v72z"/><path d="M654.68253,392.81318v-132h144v132z"/><path d="M438.68253,392.81318v-24h168v24z"/></g></g><g><g><path d="M134.84047,264.079v-200h420v200z" fill="#ffffff" stroke="#000000"/><path d="M134.84047,84.079v-20h420v20z" fill="#000000" stroke="none"/><path d="M214.84047,174.079v-10h140v10z" fill="#000000" stroke="none"/><path d="M214.84047,189.079v-10h140v10z" fill="#000000" stroke="none"/><path d="M214.84047,204.079v-5h120v5z" fill="#808080" stroke="none"/><path d="M214.84047,214.079v-5h100v5z" fill="#808080" stroke="none"/><path d="M214.84047,224.079v-5h110v5z" fill="#808080" stroke="none"/><path d="M214.84047,234.079v-5h120v5z" fill="#808080" stroke="none"/></g><g fill="#befdc8" stroke="none"><path d="M214.84047,144.079v-60h260v60z"/><path d="M394.84047,264.079v-110h120v110z"/><path d="M214.84047,264.079v-20h140v20z"/></g></g><g><g><path d="M140.08278,109.30233v-160h336v160z" fill="#ffffff" stroke="#000000"/><path d="M140.08278,-34.69767v-16h336v16z" fill="#000000" stroke="none"/><path d="M204.08278,37.30233v-8h112v8z" fill="#000000" stroke="none"/><path d="M204.08278,49.30233v-8h112v8z" fill="#000000" stroke="none"/><path d="M204.08278,61.30233v-4h96v4z" fill="#808080" stroke="none"/><path d="M204.08278,69.30233v-4h80v4z" fill="#808080" stroke="none"/><path d="M204.08278,77.30233v-4h88v4z" fill="#808080" stroke="none"/><path d="M204.08278,85.30233v-4h96v4z" fill="#808080" stroke="none"/></g><g fill="#035ab1" stroke="none"><path d="M204.08278,13.30233v-48h208v48z"/><path d="M348.08278,109.30233v-88h96v88z"/><path d="M204.08278,109.30233v-16h112v16z"/></g></g><g><g><path d="M419.40915,651.71145v-120h252v120z" fill="#ffffff" stroke="#000000"/><path d="M419.40915,543.71145v-12h252v12z" fill="#000000" stroke="none"/><path d="M467.40915,597.71145v-6h84v6z" fill="#000000" stroke="none"/><path d="M467.40915,606.71145v-6h84v6z" fill="#000000" stroke="none"/><path d="M467.40915,615.71145v-3h72v3z" fill="#808080" stroke="none"/><path d="M467.40915,621.71145v-3h60v3z" fill="#808080" stroke="none"/><path d="M467.40915,627.71145v-3h66v3z" fill="#808080" stroke="none"/><path d="M467.40915,633.71145v-3h72v3z" fill="#808080" stroke="none"/></g><g fill="#8bcc37" stroke="none"><path d="M467.40915,579.71145v-36h156v36z"/><path d="M575.40915,651.71145v-66h72v66z"/><path d="M467.40915,651.71145v-12h84v12z"/></g></g><g><g><path d="M139.05282,567.58691v-80h168v80z" fill="#ffffff" stroke="#000000"/><path d="M139.05282,495.58691v-8h168v8z" fill="#000000" stroke="none"/><path d="M171.05282,531.58691v-4h56v4z" fill="#000000" stroke="none"/><path d="M171.05282,537.58691v-4h56v4z" fill="#000000" stroke="none"/><path d="M171.05282,543.58691v-2h48v2z" fill="#808080" stroke="none"/><path d="M171.05282,547.58691v-2h40v2z" fill="#808080" stroke="none"/><path d="M171.05282,551.58691v-2h44v2z" fill="#808080" stroke="none"/><path d="M171.05282,555.58691v-2h48v2z" fill="#808080" stroke="none"/></g><g fill="#ce271b" stroke="none"><path d="M171.05282,519.58691v-24h104v24z"/><path d="M243.05282,567.58691v-44h48v44z"/><path d="M171.05282,567.58691v-8h56v8z"/></g></g><g><g><path d="M198.5326,494.02379v-40h84v40z" fill="#ffffff" stroke="#000000"/><path d="M198.5326,458.02379v-4h84v4z" fill="#000000" stroke="none"/><path d="M214.5326,476.02379v-2h28v2z" fill="#000000" stroke="none"/><path d="M214.5326,479.02379v-2h28v2z" fill="#000000" stroke="none"/><path d="M214.5326,482.02379v-1h24v1z" fill="#808080" stroke="none"/><path d="M214.5326,484.02379v-1h20v1z" fill="#808080" stroke="none"/><path d="M214.5326,486.02379v-1h22v1z" fill="#808080" stroke="none"/><path d="M214.5326,488.02379v-1h24v1z" fill="#808080" stroke="none"/></g><g fill="#304ac0" stroke="none"><path d="M214.5326,470.02379v-12h52v12z"/><path d="M250.5326,494.02379v-22h24v22z"/><path d="M214.5326,494.02379v-4h28v4z"/></g></g><g><g><path d="M115.05477,245.32526v0v0v0z" fill="#ffffff" stroke="#000000"/><path d="M115.05477,245.32526v0v0v0z" fill="#000000" stroke="none"/><path d="M115.05477,245.32526v0v0v0z" fill="#000000" stroke="none"/><path d="M115.05477,245.32526v0v0v0z" fill="#000000" stroke="none"/><path d="M115.05477,245.32526v0v0v0z" fill="#808080" stroke="none"/><path d="M115.05477,245.32526v0v0v0z" fill="#808080" stroke="none"/><path d="M115.05477,245.32526v0v0v0z" fill="#808080" stroke="none"/><path d="M115.05477,245.32526v0v0v0z" fill="#808080" stroke="none"/></g><g fill="#c99891" stroke="none"><path d="M115.05477,245.32526v0v0v0z"/><path d="M115.05477,245.32526v0v0v0z"/><path d="M115.05477,245.32526v0v0v0z"/></g></g></g></svg>