<svg version="1.1" xmlns="http://www.w3.org/2000/svg" xmlns:xlink="http://www.w3.org/1999/xlink" width="483.20001" height="483.20001"><g fill="none" fill-rule="nonzero" stroke="none" stroke-width="1" stroke-linecap="butt" stroke-linejoin="miter" stroke-miterlimit="10" stroke-dasharray="" stroke-dashoffset="0" font-family="none" font-weight="none" font-size="none" text-anchor="none" style="mix-blend-mode: normal"><path d="M85,35c0,-8.28427 6.71573,-15 15,-15c8.28427,0 15,6.71573 15,15c0,8.28427 -6.71573,15 -15,15c-8.28427,0 -15,-6.71573 -15,-15z" fill="#ffff00" stroke="#0000ff"/><path d="M70,35c0,-16.56854 13.43146,-30 30,-30c16.56854,0 30,13.43146 30,30c0,16.56854 -13.43146,30 -30,30c-16.56854,0 -30,-13.43146 -30,-30z" fill="#ffffff" stroke="#ff0000"/><path d="M13,95c-1.65685,0 -3,-1.34315 -3,-3v-14c0,-1.65685 1.34315,-3 3,-3h174c1.65685,0 3,1.34315 3,3v14c0,1.65685 -1.34315,3 -3,3z" fill="#000000" stroke="#ff0000"/><path d="M90,375v-320h20v320z" fill="#000000" stroke="#ff0000"/><path d="M70,35c0,-16.56854 13.43146,-30 30,-30c16.56854,0 30,13.43146 30,30c0,13.06219 -8.34808,24.17458 -20,28.29294v311.70706h-20v-311.70706c-11.65192,-4.11836 -20,-15.23075 -20,-28.29294z" fill="#ffffff" stroke="#ff0000"/><path d="M70,35c0,-16.56854 13.43146,-30 30,-30c16.56854,0 30,13.43146 30,30c0,13.06219 -8.34808,24.17458 -20,28.29294l0,11.70706h77c1.65685,0 3,1.34315 3,3v14c0,1.65685 -1.34315,3 -3,3h-77l0,280h-20v-280h-77c-1.65685,0 -3,-1.34315 -3,-3v-14c0,-1.65685 1.34315,-3 3,-3l77,0v-11.70706c-11.65192,-4.11836 -20,-15.23075 -20,-28.29294z" fill="#ffffff" stroke="#ff0000"/><path d="M30,350c-8.84482,-2.96927 -16.51367,14.89819 -20,10c-3.48633,-4.89819 -2.79015,-32.56201 10,-40c12.79015,-7.43799 37.67427,5.34987 40,10c2.32573,4.65013 -17.90693,1.16253 -15,10c2.90693,8.83747 28.95345,30.00001 55,30c26.04655,-0.00001 52.09315,-21.16256 55,-30c2.90685,-8.83744 -17.32603,-5.34978 -15,-10c2.32603,-4.65022 27.21098,-17.43831 40,-10c12.78902,7.43831 13.48209,35.10301 10,40c-3.48209,4.89699 -11.13936,-12.97373 -20,-10c-8.86064,2.97373 -18.92466,26.79192 -30,40c-11.07534,13.20808 -23.162,15.80605 -30,20c-6.838,4.19395 -8.42736,9.98387 -10,10c-1.57264,0.01613 -3.12858,-5.74153 -10,-10c-6.87142,-4.25847 -19.05832,-7.01773 -30,-20c-10.94168,-12.98227 -21.15518,-37.03073 -30,-40z" fill="#000000" stroke="#0000ff"/><path d="M70,35c0,-16.56854 13.43146,-30 30,-30c16.56854,0 30,13.43146 30,30c0,13.06219 -8.34808,24.17458 -20,28.29294l0,11.70706h77c1.65685,0 3,1.34315 3,3v14c0,1.65685 -1.34315,3 -3,3h-77l0,274.02118c22.36332,-4.26059 42.46699,-21.32028 45,-29.02118c2.90685,-8.83744 -17.32603,-5.34978 -15,-10c2.32603,-4.65022 27.21098,-17.43831 40,-10c12.78902,7.43831 13.48209,35.10301 10,40c-3.48209,4.89699 -11.13936,-12.97373 -20,-10c-8.86064,2.97373 -18.92466,26.79192 -30,40c-11.07534,13.20808 -23.162,15.80605 -30,20c-6.838,4.19395 -8.42736,9.98387 -10,10c-1.57264,0.01613 -3.12858,-5.74153 -10,-10c-6.87142,-4.25847 -19.05832,-7.01773 -30,-20c-10.94168,-12.98227 -21.15518,-37.03073 -30,-40c-8.84482,-2.96927 -16.51367,14.89819 -20,10c-3.48633,-4.89819 -2.79015,-32.56201 10,-40c12.79015,-7.43799 37.67427,5.34987 40,10c2.32573,4.65013 -17.90693,1.16253 -15,10c2.53308,7.70092 22.63669,24.7606 45,29.02118v-274.02118h-77c-1.65685,0 -3,-1.34315 -3,-3v-14c0,-1.65685 1.34315,-3 3,-3l77,0v-11.70706c-11.65192,-4.11836 -20,-15.23075 -20,-28.29294z" fill="#ffffff" stroke="#ff0000"/><path d="M70,35c0,-16.56854 13.43146,-30 30,-30c16.56854,0 30,13.43146 30,30c0,13.06219 -8.34808,24.17458 -20,28.29294l0,11.70706h77c1.65685,0 3,1.34315 3,3v14c0,1.65685 -1.34315,3 -3,3h-77l0,274.02118c22.36332,-4.26059 42.46699,-21.32028 45,-29.02118c2.90685,-8.83744 -17.32603,-5.34978 -15,-10c2.32603,-4.65022 27.21098,-17.43831 40,-10c12.78902,7.43831 13.48209,35.10301 10,40c-3.48209,4.89699 -11.13936,-12.97373 -20,-10c-8.86064,2.97373 -18.92466,26.79192 -30,40c-11.07534,13.20808 -23.162,15.80605 -30,20c-6.838,4.19395 -8.42736,9.98387 -10,10c-1.57264,0.01613 -3.12858,-5.74153 -10,-10c-6.87142,-4.25847 -19.05832,-7.01773 -30,-20c-10.94168,-12.98227 -21.15518,-37.03073 -30,-40c-8.84482,-2.96927 -16.51367,14.89819 -20,10c-3.48633,-4.89819 -2.79015,-32.56201 10,-40c12.79015,-7.43799 37.67427,5.34987 40,10c2.32573,4.65013 -17.90693,1.16253 -15,10c2.53308,7.70092 22.63669,24.7606 45,29.02118v-274.02118h-77c-1.65685,0 -3,-1.34315 -3,-3v-14c0,-1.65685 1.34315,-3 3,-3l77,0v-11.70706c-11.65192,-4.11836 -20,-15.23075 -20,-28.29294zM100,50c8.28427,0 15,-6.71573 15,-15c0,-8.28427 -6.71573,-15 -15,-15c-8.28427,0 -15,6.71573 -15,15c0,8.28427 6.71573,15 15,15z" fill="#ffffff" stroke="#ff0000"/></g></svg>